<svg width="1319" height="120" viewBox="0 0 1319 120" fill="none" xmlns="http://www.w3.org/2000/svg">
<path d="M39.528 119.88C23.976 119.88 11.664 114.696 1.296 117.936L0 79.704H5.832C9.72 99.144 20.088 111.78 39.528 111.78C54.432 111.78 60.912 103.68 60.912 92.664C60.912 81.648 53.784 75.816 37.098 68.04L34.344 66.744C14.904 57.672 1.296 47.952 1.296 29.808C1.296 11.016 16.2 0 38.556 0C52.488 0 64.8 4.536 75.168 1.944L75.816 36.288H69.984C67.392 16.848 53.784 8.1 39.528 8.1C29.16 8.1 22.68 13.608 22.68 22.68C22.68 31.752 28.512 37.584 45.198 45.36L47.952 46.656C67.392 55.728 82.296 65.448 82.296 84.888C82.296 104.976 65.448 119.88 39.528 119.88Z" fill="#FFE4C0" style="fill:#FFE4C0;fill:color(display-p3 1.0000 0.8941 0.7514);fill-opacity:1;"/>
<path d="M81.9024 117.936V112.428C89.0304 111.456 92.2704 107.568 96.1584 98.496L138.926 0H144.758L187.526 98.496C191.414 107.568 194.654 111.456 201.782 112.428V117.936C184.286 116.964 166.79 116.964 149.294 117.936V112.428C158.366 111.456 160.958 108.216 160.958 103.356C160.958 99.792 159.986 96.876 157.07 89.424L153.02 79.056H115.112L112.358 86.184C109.118 94.608 107.822 98.496 107.822 103.032C107.822 108.216 111.062 111.456 119.486 112.428V117.936C106.526 117.288 94.8624 117.288 81.9024 117.936ZM134.066 30.618L118.19 71.28H149.942L134.066 30.618Z" fill="#FFE4C0" style="fill:#FFE4C0;fill:color(display-p3 1.0000 0.8941 0.7514);fill-opacity:1;"/>
<path d="M203.447 117.936V112.428C211.871 111.456 215.597 106.92 215.759 95.904L217.055 22.68C217.217 12.312 213.167 8.424 204.095 7.452V1.944C213.167 2.43 221.591 2.43 230.663 1.944L286.391 60.264C294.167 68.526 299.999 75.168 304.373 81.486L303.563 25.272C303.401 12.96 299.351 8.424 287.039 7.452V1.944C299.999 2.916 313.607 2.916 326.567 1.944V7.452C318.143 8.424 314.417 12.96 314.255 23.976L312.635 117.936H306.479L243.623 51.84C235.523 43.254 229.367 36.45 224.993 29.808L226.451 94.608C226.775 106.92 230.663 111.456 242.975 112.428V117.936C230.015 116.964 216.407 116.964 203.447 117.936Z" fill="#FFE4C0" style="fill:#FFE4C0;fill:color(display-p3 1.0000 0.8941 0.7514);fill-opacity:1;"/>
<path d="M327.522 117.936V112.428C336.756 111.618 340.158 108.54 340.482 98.82V21.06C340.158 11.34 336.756 8.424 327.522 7.452V1.944C341.778 2.916 363.162 2.916 377.418 1.944V7.452C367.698 8.424 364.458 11.664 364.458 22.68V98.82C364.782 108.54 368.184 111.618 377.418 112.428V117.936C363.162 116.964 341.778 116.964 327.522 117.936Z" fill="#FFE4C0" style="fill:#FFE4C0;fill:color(display-p3 1.0000 0.8941 0.7514);fill-opacity:1;"/>
<path d="M410.087 117.936V112.428C420.455 111.618 424.019 108.54 424.343 98.82V66.744L395.831 20.736C390.647 12.312 387.407 8.424 378.983 7.452V1.944C396.479 2.59201 414.623 2.59201 432.119 1.944V7.452C424.343 8.424 421.751 11.016 421.751 15.228C421.751 19.44 424.343 23.328 427.583 29.16L443.621 57.996L458.039 31.752C461.279 25.92 463.871 21.384 463.871 15.876C463.871 11.664 460.631 8.424 452.855 7.452V1.944C466.463 2.59201 478.775 2.59201 492.383 1.944V7.452C483.311 8.424 480.071 12.312 475.535 20.088L448.319 66.744V98.82C448.643 108.54 452.045 111.618 462.575 112.428V117.936C447.023 116.964 425.639 116.964 410.087 117.936Z" fill="#FFE4C0" style="fill:#FFE4C0;fill:color(display-p3 1.0000 0.8941 0.7514);fill-opacity:1;"/>
<path d="M473.949 117.936V112.428C481.077 111.456 484.317 107.568 488.205 98.496L530.973 0H536.805L579.573 98.496C583.461 107.568 586.701 111.456 593.829 112.428V117.936C576.333 116.964 558.837 116.964 541.341 117.936V112.428C550.413 111.456 553.005 108.216 553.005 103.356C553.005 99.792 552.033 96.876 549.117 89.424L545.067 79.056H507.159L504.405 86.184C501.165 94.608 499.869 98.496 499.869 103.032C499.869 108.216 503.109 111.456 511.533 112.428V117.936C498.573 117.288 486.909 117.288 473.949 117.936ZM526.113 30.618L510.237 71.28H541.989L526.113 30.618Z" fill="#FFE4C0" style="fill:#FFE4C0;fill:color(display-p3 1.0000 0.8941 0.7514);fill-opacity:1;"/>
<path d="M576.104 49.248L572.864 45.36C581.288 40.824 584.528 35.64 584.528 30.132C584.528 24.624 581.288 21.708 577.724 18.468C574.484 15.552 572.864 13.284 572.864 9.72C572.864 4.536 576.752 0 583.556 0C593.6 0 600.728 7.77601 600.728 18.792C600.728 31.752 591.656 42.12 576.104 49.248Z" fill="#FFE4C0" style="fill:#FFE4C0;fill:color(display-p3 1.0000 0.8941 0.7514);fill-opacity:1;"/>
<path d="M650.344 119.88C634.792 119.88 622.48 114.696 612.112 117.936L610.816 79.704H616.648C620.536 99.144 630.904 111.78 650.344 111.78C665.248 111.78 671.728 103.68 671.728 92.664C671.728 81.648 664.6 75.816 647.914 68.04L645.16 66.744C625.72 57.672 612.112 47.952 612.112 29.808C612.112 11.016 627.016 0 649.372 0C663.304 0 675.616 4.536 685.984 1.944L686.632 36.288H680.8C678.208 16.848 664.6 8.1 650.344 8.1C639.976 8.1 633.496 13.608 633.496 22.68C633.496 31.752 639.328 37.584 656.014 45.36L658.768 46.656C678.208 55.728 693.112 65.448 693.112 84.888C693.112 104.976 676.264 119.88 650.344 119.88Z" fill="#FFE4C0" style="fill:#FFE4C0;fill:color(display-p3 1.0000 0.8941 0.7514);fill-opacity:1;"/>
<path d="M797.764 119.88C782.212 119.88 769.9 114.696 759.532 117.936L758.236 79.704H764.068C767.956 99.144 778.324 111.78 797.764 111.78C812.668 111.78 819.148 103.68 819.148 92.664C819.148 81.648 812.02 75.816 795.334 68.04L792.58 66.744C773.14 57.672 759.532 47.952 759.532 29.808C759.532 11.016 774.436 0 796.792 0C810.724 0 823.036 4.536 833.404 1.944L834.052 36.288H828.22C825.628 16.848 812.02 8.1 797.764 8.1C787.396 8.1 780.916 13.608 780.916 22.68C780.916 31.752 786.748 37.584 803.434 45.36L806.188 46.656C825.628 55.728 840.532 65.448 840.532 84.888C840.532 104.976 823.684 119.88 797.764 119.88Z" fill="#FFE4C0" style="fill:#FFE4C0;fill:color(display-p3 1.0000 0.8941 0.7514);fill-opacity:1;"/>
<path d="M840.138 117.936V112.428C847.266 111.456 850.506 107.568 854.394 98.496L897.162 0H902.994L945.762 98.496C949.65 107.568 952.89 111.456 960.018 112.428V117.936C942.522 116.964 925.026 116.964 907.53 117.936V112.428C916.602 111.456 919.194 108.216 919.194 103.356C919.194 99.792 918.222 96.876 915.306 89.424L911.256 79.056H873.348L870.594 86.184C867.354 94.608 866.058 98.496 866.058 103.032C866.058 108.216 869.298 111.456 877.722 112.428V117.936C864.762 117.288 853.098 117.288 840.138 117.936ZM892.302 30.618L876.426 71.28H908.178L892.302 30.618Z" fill="#FFE4C0" style="fill:#FFE4C0;fill:color(display-p3 1.0000 0.8941 0.7514);fill-opacity:1;"/>
<path d="M961.683 117.936V112.428C971.403 111.456 974.643 108.216 974.643 97.2V22.68C974.643 11.664 971.403 8.424 961.683 7.452V1.944C975.939 2.916 997.323 2.916 1012.87 1.944V7.452C1002.34 8.424 998.943 11.34 998.619 21.06V97.2C998.619 105.624 1002.51 109.512 1012.23 109.512H1022.59C1042.68 109.512 1050.46 100.44 1054.35 81H1060.18L1056.29 117.936C1003.15 117.288 977.235 117.288 961.683 117.936Z" fill="#FFE4C0" style="fill:#FFE4C0;fill:color(display-p3 1.0000 0.8941 0.7514);fill-opacity:1;"/>
<path d="M1129.23 119.88C1094.89 119.88 1067.02 99.792 1067.02 62.208C1067.02 25.272 1094.24 0 1128.58 0C1162.93 0 1190.79 20.088 1190.79 57.672C1190.79 94.608 1163.58 119.88 1129.23 119.88ZM1129.88 111.456C1153.21 111.456 1164.87 88.776 1164.87 61.56C1164.87 32.4 1151.26 8.424 1127.94 8.424C1104.61 8.424 1092.94 31.104 1092.94 58.32C1092.94 87.48 1106.55 111.456 1129.88 111.456Z" fill="#FFE4C0" style="fill:#FFE4C0;fill:color(display-p3 1.0000 0.8941 0.7514);fill-opacity:1;"/>
<path d="M1194.96 117.936V112.428C1203.39 111.456 1207.11 106.92 1207.27 95.904L1208.57 22.68C1208.73 12.312 1204.68 8.424 1195.61 7.452V1.944C1204.68 2.43 1213.11 2.43 1222.18 1.944L1277.91 60.264C1285.68 68.526 1291.51 75.168 1295.89 81.486L1295.08 25.272C1294.92 12.96 1290.87 8.424 1278.55 7.452V1.944C1291.51 2.916 1305.12 2.916 1318.08 1.944V7.452C1309.66 8.424 1305.93 12.96 1305.77 23.976L1304.15 117.936H1297.99L1235.14 51.84C1227.04 43.254 1220.88 36.45 1216.51 29.808L1217.97 94.608C1218.29 106.92 1222.18 111.456 1234.49 112.428V117.936C1221.53 116.964 1207.92 116.964 1194.96 117.936Z" fill="#FFE4C0" style="fill:#FFE4C0;fill:color(display-p3 1.0000 0.8941 0.7514);fill-opacity:1;"/>
</svg>
