<svg width="792" height="1181" viewBox="0 0 792 1181" fill="none" xmlns="http://www.w3.org/2000/svg">
<path d="M622.447 689.479L621.577 698.153L620.574 706.777L619.179 715.376L617.105 723.843L613.035 731.637L608.729 739.189L600.299 738.618L590.915 735.996L581.52 733.501L571.74 733.183L562.402 729.659L552.678 728.874L542.939 728.611L533.212 729.161L523.529 730.742L513.912 731.247L504.275 730.644L494.661 731.222L485.044 731.572L475.349 729.631L465.806 732.144L456.181 732.315L446.922 733.154L437.518 732.155L428.215 732.831L419.161 735.547L409.656 734.814L400.687 737.741L391.715 740.337L382.379 741.081L373.353 743.356L364.57 746.54L354.958 746.672L346.746 751.726L337.969 754.744L328.663 756.254L320.108 760.062L311.044 762.493L302.849 767.19L294.116 770.483L285.243 773.46L276.305 776.334L268.372 781.479L259.223 783.956L251.534 789.526L243.142 793.605L234.803 797.794L226.249 801.596L218.647 807.137L210.578 811.809L201.875 815.425L192.29 820.048L184.232 826.984L176.346 833.994L169.1 841.621L157.596 844.936L152.112 842.518L150 835.756L155.472 827.182L157.753 817.304L162.575 808.537L168.487 800.471L174.96 792.895L180.178 784.32L186.464 776.524L193.531 769.437L201.317 763.144L208.665 756.372L216.395 750.99L224.008 745.496L231.035 739.17L239.153 734.387L246.433 728.34L255.77 725.559L262.803 719.047L271.194 714.794L279.913 711.17L287.815 706.06L296.733 702.88L304.506 697.47L313.306 692.763L322.745 689.432L332.106 686.01L341.343 682.357L350.559 678.645L359.562 674.189L368.954 670.737L379.019 669.818L388.584 666.979L398.931 663.9L409.76 663.563L420.186 660.932L430.55 658.129L438.729 658.021L446.444 655.9L454.065 653.585L464.082 651.46L474.311 652.352L484.66 651.258L495.017 652.98L505.485 652.817L515.835 651.193L526.332 651.13L536.603 649.115L545.793 647L555.215 647.154L564.587 647.411L573.962 647.889L583.08 649.583L592.19 651.356L601.059 652.76L608.503 657.635L615.784 662.932L619.8 671.115L621.877 680.003L622.447 689.479Z" fill="black" style="fill:black;fill-opacity:1;"/>
<path d="M426.177 980.109L426.679 981.357L428.346 986.367L423.371 984.153L415.551 980.8L408.065 976.734L402.485 978.893L394.125 980.798L390.11 978.785L393.055 975.501L395.173 975.152L388.249 973.823L380.669 974.668L371.504 978.914L365.026 974.602L362.052 967.119L359.265 970.218L354.057 973.353L354.51 967.61L345.449 971.527L344.814 973.029L338.916 974.807L338.547 969.31L333.321 970.222L321.378 966.88L321.812 963.992L323.823 963.939L332.588 962.749L337.642 952.904L338.155 949.206L327.142 947.097L315.988 945.702L308.159 943.615L305.977 941.03L308.951 938.959L322.628 940.912L332.448 941.839L342.306 941.002L352.144 941.21L361.956 940.468L371.852 940.952L381.664 940.003L391.284 937.579L401.172 937.187L410.848 935.327L420.509 933.393L429.982 930.672L440.357 928.011L450.797 925.574L460.94 922.077L471.207 919.033L479.784 916.503L487.645 912.255L495.219 907.573L502.539 902.528L509.774 897.365L519.337 892.633L528.697 887.617L539.226 886.222L546.442 886.426L553.663 887.113L557.379 891.717L552.538 894.425L544.279 894.934L536.058 894.079L526.958 896.634L524.671 898.707L526.755 901.55L532.326 901.764L539.992 902.314L547.661 902.041L551.015 902.851L549.097 905.973L544.841 908.861L536.229 912.647L529.703 919.474L523.476 929.628L517.977 939.817L522.688 940.371L527.641 944.884L521.94 949.089L509.107 948.947L497.035 954.269L497.111 955.394L506.611 957.009L510.785 958.014L514.05 959.229L512.183 962.892L507.187 964.408L493.151 961.865L484.003 961.284L480.972 965.805L475.529 963.445L469.894 966.588L464.665 970.056L460.277 971.527L455.926 974.034L454.845 974.754L459.934 978.223L461.298 981.206L458.312 982.505L454.328 981.634L446.573 978.641L438.158 978.582L438.032 983.51L431.173 982.126L427.725 978.858L426.177 980.109Z" fill="black" style="fill:black;fill-opacity:1;"/>
<path d="M417.233 807.93L426.904 808.181L436.46 809.871L446.112 809.85L455.7 810.88L465.052 813.261L474.382 815.571L483.619 818.217L492.954 820.69L501.876 824.357L510.239 829.197L518.718 833.711L526.592 838.817L528.612 843.912L523.134 844.356L513.388 839.191L503.513 834.296L494.691 831.186L486.13 827.366L477.169 824.657L467.874 823.307L458.766 821.343L449.644 819.298L440.351 818.329L431.049 817.283L421.693 817.188L412.379 818.288L403.093 819.046L392.782 819.737L382.42 819.813L372.27 821.781L362.167 823.826L353.304 825.958L345.504 830.725L337.573 835.011L329.44 839.158L322.924 845.546L315.012 851.921L307.918 859.219L299.849 865.447L292.99 872.994L285.371 879.726L278.667 885.385L272.758 884.814L273.619 879.521L273.613 877.79L280.775 870.934L287.448 863.612L294.687 856.852L301.895 850.063L309.114 843.258L316.984 837.218L324.98 831.335L333.811 826.765L341.509 822.113L349.66 818.263L358.288 815.661L367.013 813.534L375.903 812.345L384.725 810.5L395.538 809.331L406.421 809.279L417.233 807.93Z" fill="black" style="fill:black;fill-opacity:1;"/>
<path d="M172.362 783.064L168.355 778.616L173.599 771.039L179.895 764.304L187.476 759.058L195.745 754.981L199.157 756.464L198.098 760.51L188.241 769.501L182.733 774.542L177.333 779.69L172.362 783.064Z" fill="black" style="fill:black;fill-opacity:1;"/>
<path d="M622.93 723.483L624.278 713.242L625.266 702.965L626.348 692.255L627.338 681.535L629.776 678.642L633.104 680.531L633.476 684.372L632.576 693.446L631.904 702.544L630.85 711.603L630.031 720.687L629.115 723.592L625.841 726.172L622.93 723.483Z" fill="black" style="fill:black;fill-opacity:1;"/>
<path d="M651.971 674.434L651.353 677.159L648.455 686.122L645.525 695.075L642.445 703.977L641.056 706.768L637.48 708.04L635.695 704.832L638.045 694.36L641.272 684.132L645.911 674.486L649.668 672.601L651.971 674.434Z" fill="black" style="fill:black;fill-opacity:1;"/>
<path d="M315.873 784.006C313.5 784.438 310.682 784.8 308.409 785.213C306.048 785.643 303.708 785.939 301.423 786.354C299.077 786.783 296.761 787.188 294.464 787.604C292.132 788.026 289.851 788.619 287.537 789.036C285.033 789.486 282.72 791.001 280.217 791.448C277.712 791.896 275.044 791.419 272.539 791.865C270.035 792.311 267.514 792.663 265.009 793.11C262.505 793.557 260.056 794.316 257.552 794.766C255.049 795.215 252.613 796.037 250.11 796.492C247.739 796.923 245.257 796.743 242.887 797.176C240.517 797.607 238.304 798.905 235.934 799.339C233.563 799.772 231.207 800.276 228.835 800.709C226.465 801.143 224.124 801.738 221.754 802.172C219.384 802.605 216.785 801.79 214.415 802.224C212.045 802.658 209.861 804.107 207.491 804.541C205.12 804.975 202.592 804.548 200.222 804.981C197.852 805.414 195.675 806.908 193.305 807.341C190.933 807.774 188.424 807.444 186.054 807.875C183.684 808.308 181.303 808.683 178.932 809.114C176.512 809.553 174.024 809.625 171.604 810.063C169.183 810.502 166.842 811.379 164.42 811.816C162 812.254 159.689 813.3 157.269 813.739C154.848 814.176 152.363 814.261 149.941 814.698C147.521 815.133 145.179 816.008 142.758 816.445C140.336 816.88 137.814 816.748 135.392 817.184C132.971 817.619 130.623 818.464 128.201 818.898C125.78 819.334 123.172 818.728 120.75 819.161C118.329 819.595 116.006 820.579 113.584 821.012C111.251 821.428 108.994 822.286 106.659 822.7C104.324 823.114 101.822 822.586 99.4867 822.996C97.1503 823.408 94.9444 824.551 92.608 824.962C90.2731 825.371 87.8824 825.47 85.546 825.88C83.2111 826.289 80.8659 826.651 78.531 827.062C76.1945 827.472 73.7834 827.452 71.4484 827.866C69.112 828.278 66.8754 829.244 64.5404 829.661C62.1366 830.089 59.7943 830.869 57.3904 831.3C54.988 831.73 52.6443 832.5 50.2404 832.931C47.838 833.364 45.2318 832.675 42.8294 833.106C40.4255 833.539 38.1742 834.815 35.7703 835.247C33.3664 835.68 30.8848 835.674 28.481 836.107C26.0771 836.539 23.817 837.764 21.4131 838.197C19.0092 838.628 16.5144 838.547 14.1106 838.978C11.7067 839.41 9.3703 840.224 6.96644 840.653C4.56257 841.083 1.98563 840.543 -0.418236 840.972C-3.16384 841.46 -5.7261 843.006 -8.47463 843.474C-11.2246 843.942 -14.0934 843.708 -16.8449 844.162C-19.5964 844.613 -22.3214 845.229 -25.0744 845.672C-26.5264 845.907 -28.128 846.194 -29.5932 846.039C-30.171 845.977 -30.919 844.593 -31.6406 844.016C-29.5022 842.129 -26.9092 841.66 -24.6021 841.227C-22.1777 840.772 -19.7929 840.109 -17.3685 839.655C-14.9441 839.2 -12.376 839.508 -9.95157 839.053C-7.52717 838.599 -5.08518 838.236 -2.66078 837.782C-0.236378 837.327 2.0883 836.343 4.5127 835.89C6.9371 835.435 9.48616 835.646 11.912 835.193C14.3364 834.738 16.5643 833.232 18.9887 832.779C21.4351 832.321 23.8639 831.767 26.3103 831.309C28.7582 830.852 31.228 830.519 33.6759 830.061C36.1223 829.604 38.5702 829.153 41.0166 828.696C43.4644 828.237 45.9284 827.876 48.3763 827.418C50.8227 826.959 53.3175 826.758 55.7639 826.299C58.2118 825.842 60.7858 826.066 63.2322 825.608C65.68 825.149 68.1587 824.863 70.6051 824.406C73.053 823.948 75.4554 823.254 77.9017 822.797C80.3496 822.339 82.5995 820.827 85.0459 820.371C87.4938 819.913 90.1059 820.346 92.5538 819.888C95.0002 819.432 97.2852 818.105 99.7331 817.65C102.18 817.194 104.753 817.42 107.201 816.965C109.649 816.509 112.041 815.76 114.489 815.305C116.937 814.85 119.416 814.564 121.864 814.111C124.391 813.643 127.032 813.791 129.561 813.325C132.088 812.859 134.651 812.59 137.18 812.125C139.709 811.662 141.994 809.87 144.522 809.406C147.051 808.944 149.673 808.99 152.202 808.528C154.73 808.066 157.228 807.436 159.758 806.974C162.286 806.514 164.756 805.731 167.285 805.269C169.815 804.808 172.575 805.621 175.104 805.16C177.634 804.7 180.049 803.62 182.578 803.16C185.108 802.699 187.705 802.615 190.234 802.153C192.762 801.691 195.305 801.303 197.834 800.841C200.363 800.377 202.849 799.684 205.377 799.22C207.806 798.773 210.279 798.564 212.707 798.116C215.135 797.667 217.543 797.102 219.97 796.652C222.398 796.2 224.758 795.382 227.186 794.93C229.614 794.48 232.11 794.396 234.537 793.944C236.965 793.493 239.195 791.981 241.623 791.529C244.052 791.077 246.483 790.652 248.912 790.202C251.339 789.751 253.99 790.501 256.419 790.053C258.847 789.606 261.237 788.953 263.665 788.509C266.104 788.062 268.488 787.306 270.928 786.863C273.367 786.42 275.809 785.991 278.25 785.551C280.69 785.111 283.203 785.065 285.643 784.627C288.084 784.19 290.567 783.987 293.007 783.549C295.448 783.112 297.641 781.287 300.083 780.85C302.523 780.413 305.04 780.398 307.481 779.96C309.921 779.523 312.293 778.698 314.733 778.258C315.321 778.153 316.232 777.854 316.735 777.992C319.639 778.792 321.701 778.266 323.964 777.163C326.286 776.031 328.85 775.268 331.183 774.188C333.219 773.245 334.717 771.088 336.777 770.212C338.883 769.318 341.198 768.911 343.31 768.033C345.422 767.154 347.361 765.856 349.474 764.979C351.588 764.102 353.757 763.369 355.864 762.479C357.972 761.588 360.166 760.909 362.262 759.991C364.667 758.935 367.344 758.482 369.739 757.402C372.134 756.323 374.353 754.849 376.744 753.758C379.133 752.665 381.406 751.317 383.796 750.225C386.185 749.132 388.602 748.096 390.996 747.016C393.212 746.014 395.22 744.556 397.431 743.545C399.644 742.536 401.831 741.469 404.044 740.461C406.258 739.453 408.837 739.254 411.057 738.26C413.276 737.265 415.685 736.711 417.913 735.738C420.143 734.766 422.221 733.459 424.465 732.519C426.562 731.642 428.08 730.103 429.669 728.788C431.264 727.466 432.471 725.822 433.838 724.045C435.302 722.141 437.014 720.429 438.486 718.533C439.957 716.636 441.535 714.822 443.014 712.93C444.492 711.038 446.051 709.211 447.534 707.323C449.017 705.436 450.772 703.762 452.26 701.877C453.745 699.993 454.461 697.498 455.95 695.615C457.438 693.73 459.858 692.585 461.347 690.701C462.837 688.818 463.94 686.63 465.427 684.745C466.916 682.861 468.412 680.983 469.898 679.097C471.41 677.177 473.006 675.323 474.518 673.402C476.03 671.481 476.817 668.992 478.33 667.07C479.842 665.149 482.191 663.888 483.703 661.966C485.214 660.047 486.144 657.666 487.655 655.745C489.165 653.824 490.544 651.798 492.055 649.877C493.565 647.955 495.688 646.514 497.198 644.591C498.709 642.67 499.937 640.527 501.447 638.604C502.97 636.665 504.866 635.018 506.388 633.079C507.911 631.139 508.866 628.754 510.388 626.815C511.91 624.875 513.513 622.997 515.034 621.058C516.557 619.118 517.676 616.862 519.198 614.922C520.721 612.981 522.356 611.13 523.878 609.191C525.401 607.251 527.384 605.673 528.908 603.734C530.43 601.797 532.016 599.906 533.541 597.967C535.198 595.861 536.696 593.629 538.354 591.524C540.013 589.418 541.798 587.413 543.458 585.308C545.119 583.204 547.2 581.432 548.862 579.327C550.522 577.224 551.191 574.336 552.851 572.233C554.511 570.13 556.833 568.546 558.493 566.442C560.154 564.339 561.462 561.956 563.122 559.853C564.784 557.748 567.169 556.217 568.829 554.112C570.367 552.16 571.508 549.896 573.047 547.943C574.587 545.993 576.281 544.164 577.82 542.212C579.358 540.261 580.784 538.219 582.322 536.269C583.861 534.317 585.807 532.687 587.345 530.735C588.885 528.784 590.43 526.837 591.968 524.886C593.507 522.934 594.771 520.766 596.31 518.815C597.85 516.863 599.462 514.97 601 513.019C602.54 511.067 603.885 508.964 605.424 507.013C606.964 505.061 608.574 503.166 610.113 501.215C611.707 499.194 612.971 496.915 614.564 494.894C616.157 492.873 617.644 490.768 619.237 488.747C620.829 486.726 622.917 485.095 624.509 483.074C626.102 481.053 627.872 479.173 629.467 477.152C631.059 475.131 632.696 473.145 634.291 471.125C635.885 469.106 637.285 466.934 638.881 464.915C640.477 462.896 641.376 460.326 642.973 458.308C644.581 456.278 646.518 454.509 648.127 452.481C649.736 450.453 651.329 448.411 652.939 446.383C654.55 444.356 656.122 442.298 657.734 440.271C659.344 438.244 660.603 435.936 662.214 433.909C663.825 431.882 665.668 430.04 667.28 428.013C668.891 425.986 670.833 424.221 672.443 422.194C674.055 420.166 675.275 417.83 676.884 415.801C678.494 413.773 680.071 411.719 681.679 409.69C683.304 407.639 684.858 405.534 686.482 403.483C688.105 401.432 690.122 399.691 691.744 397.639C693.366 395.588 694.981 393.528 696.602 391.476C698.224 389.423 699.586 387.167 701.209 385.114C702.829 383.061 704.993 381.436 706.613 379.382C708.235 377.331 709.262 374.808 710.884 372.755C712.505 370.701 714.079 368.611 715.701 366.559C717.313 364.518 719.089 362.607 720.699 360.564C722.31 358.521 724.008 356.546 725.621 354.506C727.235 352.466 729.375 350.844 730.995 348.81C732.402 347.044 733.603 345.438 735.925 344.816C737.701 344.341 738.996 345.103 738.356 346.777C737.567 348.843 736.52 350.865 735.175 352.597C733.628 354.588 731.853 356.401 730.297 358.387C728.742 360.371 727.089 362.278 725.527 364.258C723.965 366.238 722.929 368.633 721.362 370.61C719.796 372.587 717.641 374.096 716.073 376.072C714.505 378.048 712.883 379.981 711.315 381.956C709.69 384.005 708.939 386.749 707.313 388.798C705.686 390.847 703.567 392.505 701.939 394.554C700.312 396.601 699.277 399.121 697.649 401.168C696.021 403.216 693.71 404.72 692.082 406.768C690.454 408.815 688.785 410.832 687.158 412.88C685.53 414.928 684.493 417.445 682.867 419.494C681.24 421.543 678.864 422.997 677.237 425.047C675.586 427.13 674.925 429.998 673.272 432.083C671.62 434.165 669.084 435.548 667.433 437.633C665.781 439.717 664.778 442.316 663.128 444.4C661.477 446.484 659.104 447.996 657.454 450.082C655.802 452.166 654.146 454.245 652.496 456.331C650.846 458.417 649.561 460.791 647.913 462.877C646.264 464.962 644.449 466.917 642.802 469.004C641.14 471.108 639.676 473.366 638.017 475.471C636.359 477.577 634.895 479.836 633.237 481.942C631.58 484.048 629.572 485.878 627.916 487.986C626.259 490.092 625.273 492.726 623.615 494.832C621.957 496.939 619.785 498.64 618.125 500.745C616.466 502.849 614.947 505.064 613.285 507.167C611.623 509.27 609.454 510.97 607.788 513.07C606.308 514.938 605.796 517.575 604.313 519.439C602.831 521.304 601.208 523.06 599.723 524.923C598.238 526.787 596.102 528.13 594.614 529.993C593.127 531.854 592.262 534.212 590.773 536.074C589.286 537.935 587.769 539.774 586.282 541.635C584.793 543.496 583.325 545.372 581.838 547.234C580.349 549.096 578.485 550.655 576.998 552.518C575.511 554.379 573.468 555.797 571.982 557.66C570.344 559.713 568.967 561.975 567.33 564.028C565.693 566.083 564.429 568.434 562.792 570.488C561.155 572.542 559.642 574.694 558.005 576.749C556.37 578.804 554.564 580.725 552.927 582.78C551.292 584.834 549.332 586.631 547.696 588.686C546.059 590.741 544.47 592.832 542.834 594.887C541.324 596.782 539.638 598.536 538.127 600.431C536.616 602.326 535.723 604.714 534.213 606.609C532.703 608.504 530.6 609.926 529.089 611.821C527.579 613.715 526.577 616.016 525.066 617.911C523.557 619.806 522.359 621.948 520.848 623.843C519.338 625.738 517.208 627.14 515.697 629.035C514.187 630.929 513.273 633.299 511.762 635.194C510.206 637.145 507.673 638.316 506.119 640.267C504.562 642.218 503.769 644.776 502.213 646.726C500.657 648.677 498.325 650.009 496.77 651.959C495.214 653.91 494.461 656.503 492.905 658.454C491.351 660.404 489.731 662.304 488.175 664.254C486.619 666.205 484.919 668.041 483.365 669.992C481.809 671.943 479.67 673.428 478.114 675.379C476.558 677.33 475.499 679.676 473.943 681.627C472.423 683.534 471.504 685.92 469.983 687.825C468.463 689.732 466.865 691.577 465.344 693.484C463.823 695.389 461.378 696.558 459.857 698.464C458.336 700.371 456.731 702.209 455.211 704.116C453.69 706.022 452.717 708.366 451.198 710.273C449.677 712.179 448.678 714.501 447.157 716.408C445.638 718.314 443.445 719.686 441.925 721.592C440.405 723.499 438.841 725.37 437.322 727.277C436.387 728.449 435.369 729.753 434.214 731.265C435.015 731.689 436.044 733.153 436.707 733.134C439.247 733.062 441.748 731.673 444.288 731.596C446.827 731.52 449.364 731.407 451.905 731.327C454.443 731.246 457.017 732.19 459.556 732.104C462.095 732.019 464.616 731.369 467.155 731.278C469.694 731.189 472.256 731.706 474.795 731.611C476.998 731.528 479.158 730.447 481.361 730.345C483.563 730.244 485.821 731.312 488.023 731.205C490.224 731.099 492.398 730.389 494.599 730.293C496.802 730.196 499.008 730.246 501.213 730.172C503.528 730.096 505.843 729.979 508.162 729.927C510.479 729.875 512.783 729.171 515.1 729.127C517.419 729.084 519.748 729.622 522.066 729.571C524.383 729.52 526.687 729.037 529.004 728.962C531.207 728.89 533.45 729.823 535.653 729.728C537.856 729.633 540.06 729.537 542.262 729.433C544.465 729.33 546.66 729.132 548.863 729.037C551.065 728.94 553.251 728.531 555.454 728.458C557.772 728.382 560.085 728.236 562.402 728.178C564.719 728.12 567.023 727.444 569.341 727.396C571.658 727.346 573.981 727.516 576.299 727.463C578.616 727.411 580.919 726.909 583.236 726.843C585.578 726.776 587.948 727.61 590.289 727.522C592.63 727.434 594.949 726.748 597.291 726.657C599.632 726.567 601.999 727.205 604.341 727.13C606.657 727.057 608.945 726.039 611.262 725.972C613.578 725.903 615.915 726.49 618.232 726.424C620.549 726.359 622.852 725.783 625.168 725.718C627.485 725.655 629.826 726.468 632.143 726.403C634.461 726.338 636.779 726.375 639.097 726.312C641.414 726.249 643.718 725.752 646.036 725.69C648.353 725.627 650.678 725.898 652.995 725.837C655.312 725.774 657.638 726.042 659.954 725.979C662.346 725.915 664.715 724.95 667.107 724.885C669.499 724.82 671.88 724.35 674.272 724.287C676.664 724.222 679.069 724.684 681.461 724.62C683.854 724.554 686.234 724.05 688.626 723.984C691.017 723.918 693.427 724.51 695.817 724.441C698.208 724.372 700.6 724.341 702.991 724.27C705.381 724.202 707.766 723.93 710.157 723.864C712.459 723.801 714.758 723.586 717.06 723.525C719.363 723.465 721.686 724.19 723.989 724.13C726.292 724.07 728.572 723.163 730.873 723.1C733.176 723.038 735.47 722.694 737.773 722.628C740.075 722.56 742.372 722.362 744.675 722.288C746.952 722.216 749.246 722.637 751.524 722.547C753.803 722.458 756.085 722.472 758.363 722.377C760.641 722.282 762.91 721.955 765.188 721.865C767.465 721.776 769.772 722.554 772.052 722.483C774.294 722.411 776.523 721.994 778.766 721.938C781.008 721.881 783.242 721.412 785.485 721.364C787.727 721.314 789.97 721.221 792.212 721.17C794.456 721.12 796.696 720.99 798.939 720.929C801.705 720.856 804.493 721.632 807.258 721.554C810.024 721.475 812.75 720.095 815.516 720.014C818.281 719.934 821.066 720.535 823.831 720.456C826.595 720.375 829.35 719.884 832.115 719.807C834.881 719.731 837.647 719.655 840.413 719.582C843.179 719.51 845.944 719.334 848.71 719.262C851.476 719.19 854.26 719.84 857.026 719.766C859.792 719.694 862.561 719.694 865.327 719.62C867.532 719.561 869.748 719.904 871.954 719.844C874.159 719.785 876.327 718.372 878.533 718.31C880.737 718.248 882.945 718.291 885.151 718.228C887.355 718.163 889.584 718.902 891.789 718.835C894.144 718.765 896.47 717.816 898.824 717.739C901.178 717.663 903.566 718.621 905.92 718.543C908.274 718.465 910.63 718.452 912.984 718.376C915.338 718.3 917.68 717.868 920.034 717.798C922.052 717.738 924.079 718.086 926.097 718.047C928.117 718.009 930.125 717.942 932.144 717.954C933.427 717.962 934.869 717.644 936.016 718.182C936.808 718.553 937.549 719.755 937.525 720.491C937.5 721.295 936.669 722.257 935.862 722.594C934.379 723.216 932.791 724.134 931.182 724.19C928.521 724.281 925.854 724.168 923.195 724.253C920.534 724.336 917.866 724.177 915.206 724.257C912.545 724.336 909.88 724.229 907.22 724.306C904.559 724.383 901.91 724.845 899.25 724.922C896.589 724.998 893.939 725.453 891.28 725.529C888.589 725.607 885.89 725.391 883.198 725.469C880.509 725.546 877.819 725.632 875.127 725.709C872.438 725.787 869.732 725.324 867.04 725.401C864.35 725.478 861.682 726.362 858.993 726.44C856.301 726.517 853.582 725.576 850.891 725.654C848.201 725.731 845.53 726.528 842.84 726.605C840.149 726.682 837.472 727.226 834.781 727.304C832.091 727.38 829.384 726.91 826.694 726.988C824.002 727.066 821.295 726.514 818.604 726.591C815.914 726.668 813.252 727.792 810.562 727.87C807.871 727.947 805.167 727.556 802.476 727.635C799.786 727.714 797.11 728.291 794.42 728.37C791.728 728.449 789.022 728.005 786.331 728.082C783.641 728.159 780.943 727.933 778.251 728.006C775.56 728.079 772.895 729.122 770.204 729.19C767.786 729.251 765.342 728.166 762.923 728.222C760.506 728.276 758.099 728.76 755.681 728.813C753.264 728.864 750.849 729.118 748.432 729.169C746.015 729.219 743.606 729.636 741.187 729.687C738.77 729.74 736.328 728.653 733.909 728.709C731.492 728.763 729.091 729.524 726.674 729.586C723.983 729.653 721.271 728.923 718.58 728.996C715.89 729.069 713.204 729.352 710.513 729.429C707.823 729.506 705.125 729.357 702.435 729.436C699.745 729.515 697.064 729.932 694.374 730.011C691.683 730.09 689.018 731.046 686.328 731.124C683.638 731.202 680.929 730.645 678.238 730.722C675.548 730.8 672.859 730.941 670.168 731.019C667.478 731.096 664.781 730.923 662.09 731.001C659.4 731.08 656.736 732.092 654.047 732.171C651.355 732.249 648.668 732.441 645.978 732.519C643.287 732.598 640.566 731.635 637.877 731.712C635.185 731.792 632.503 732.158 629.813 732.236C627.121 732.315 624.452 733.12 621.762 733.198C619.071 733.276 616.347 732.196 613.656 732.273C610.966 732.35 608.282 732.652 605.591 732.73C602.901 732.806 600.224 733.34 597.533 733.417C594.843 733.494 592.134 732.924 589.444 733C586.753 733.076 584.059 732.996 581.369 733.072C578.677 733.147 576.018 734.351 573.329 734.426C570.639 734.499 567.93 733.926 565.24 733.996C562.49 734.069 559.725 733.575 556.975 733.642C554.224 733.711 551.491 734.464 548.74 734.53C545.99 734.597 543.225 734.08 540.475 734.147C537.725 734.213 534.969 734.135 532.219 734.206C529.469 734.276 526.738 735.108 523.988 735.184C521.546 735.25 519.115 735.627 516.674 735.699C514.234 735.771 511.786 735.602 509.345 735.677C506.903 735.752 504.449 735.397 502.009 735.471C499.568 735.548 497.123 735.499 494.683 735.573C492.242 735.646 489.811 736.01 487.369 736.079C484.928 736.148 482.48 735.914 480.038 735.977C477.683 736.038 475.335 736.304 472.979 736.346C470.624 736.388 468.279 737.098 465.923 737.13C463.566 737.162 461.199 736.4 458.843 736.434C456.488 736.467 454.125 736.194 451.77 736.24C448.703 736.299 445.641 736.445 442.575 736.501C439.516 736.557 436.443 737.796 433.372 737.699C430.776 737.617 427.703 738.192 425.261 739.565C422.23 741.269 419.6 743.787 416.2 744.607C415.332 744.817 414.478 744.909 413.776 745.417C411.042 747.395 407.924 748.688 404.586 749.22C403.603 749.375 402.773 749.952 401.922 750.54C399.421 752.269 396.575 753.026 393.511 753.554C392.01 753.814 390.831 755.405 389.607 756.414C387.336 758.282 384.778 759.836 381.653 759.82C380.129 759.811 378.794 760.777 377.297 761.418C375.107 762.355 372.583 762.54 370.425 763.548C369.205 764.118 368.423 765.582 367.221 766.192C366.152 766.735 365.033 767.627 363.9 767.899C361.895 768.382 359.927 768.599 358.135 769.475C356.344 770.349 354.153 770.808 352.625 772.226C352.113 772.701 351.696 773.285 350.985 773.363C348.238 773.66 345.587 774.37 343.106 775.387C340.613 776.406 338.42 778.162 335.951 779.25C334.167 780.038 332.053 780.049 330.251 780.797C329.318 781.186 327.134 782.639 325.113 784.097C323.073 785.568 321.741 787.836 321.113 788.576C319.525 790.451 318.083 792.448 316.496 794.323C314.908 796.196 312.564 797.429 310.976 799.304C309.389 801.178 307.765 803.022 306.177 804.896C304.59 806.77 302.981 808.626 301.392 810.5C299.805 812.375 298.296 814.315 296.708 816.189C295.121 818.062 293.986 820.321 292.399 822.195C290.81 824.068 289.52 826.195 287.931 828.068C286.343 829.942 284.576 831.664 282.987 833.537C281.397 835.41 279.838 837.308 278.248 839.181C276.66 841.054 274.928 842.805 273.338 844.678C271.75 846.551 269.839 848.15 268.249 850.022C266.694 851.854 265.792 854.242 264.237 856.072C262.683 857.904 260.157 858.912 258.602 860.744C257.046 862.576 255.584 864.485 254.029 866.317C252.473 868.148 250.762 869.846 249.205 871.678C247.649 873.508 246.579 875.751 245.023 877.581C243.466 879.413 241.388 880.799 239.832 882.629C238.276 884.46 236.723 886.293 235.167 888.124C233.61 889.954 232.345 892.032 230.789 893.863C229.231 895.693 228.212 897.981 226.655 899.81C225.098 901.64 223.436 903.38 221.879 905.21C220.321 907.039 218.929 909.01 217.371 910.839C215.685 912.821 213.737 914.579 212.049 916.559C210.361 918.539 208.322 920.22 206.634 922.2C204.946 924.179 202.983 925.924 201.294 927.904C199.604 929.882 198.409 932.283 196.721 934.262C195.031 936.24 193.07 937.987 191.381 939.966C189.691 941.944 188.205 944.097 186.517 946.077C184.828 948.056 183.474 950.32 181.784 952.299C180.096 954.279 177.676 955.636 175.988 957.616C174.3 959.596 172.805 961.74 171.119 963.72C169.552 965.559 168.341 967.7 166.776 969.54C165.209 971.379 163.502 973.098 161.937 974.937C160.372 976.778 158.388 978.26 156.825 980.101C155.26 981.94 153.96 984.007 152.395 985.848C150.832 987.687 148.995 989.297 147.431 991.138C145.867 992.977 145.05 995.454 143.487 997.293C141.922 999.134 140.531 1001.12 138.965 1002.96C137.4 1004.8 135.521 1006.37 133.956 1008.21C132.39 1010.05 130.897 1011.95 129.33 1013.79C127.764 1015.63 125.922 1017.23 124.354 1019.07C122.788 1020.91 121.352 1022.86 119.782 1024.7C118.131 1026.63 116.069 1028.21 114.416 1030.15C112.763 1032.08 111.242 1034.13 109.589 1036.06C107.936 1037.99 106.475 1040.09 104.822 1042.02C103.169 1043.96 101.48 1045.86 99.827 1047.79C98.1726 1049.73 96.788 1051.89 95.1336 1053.82C93.4807 1055.75 91.5168 1057.42 89.8624 1059.35C88.2095 1061.29 86.6255 1063.28 84.9711 1065.21C83.3167 1067.14 82.2768 1069.6 80.6224 1071.53C78.968 1073.46 76.4674 1074.67 74.813 1076.6C73.16 1078.54 71.312 1080.3 69.6576 1082.23C68.0032 1084.17 67.0514 1086.7 65.3984 1088.63C63.744 1090.56 61.811 1092.26 60.1566 1094.19C58.5036 1096.12 56.8448 1098.05 55.1904 1099.98C53.5375 1101.92 51.5384 1103.55 49.884 1105.49C48.2311 1107.42 47.5432 1110.18 45.8903 1112.11C44.2374 1114.04 41.4962 1115.05 39.8432 1116.98C38.1903 1118.91 37.3308 1121.53 35.6779 1123.46C34.0308 1125.38 31.7018 1126.73 30.0562 1128.66C28.4106 1130.58 26.6403 1132.4 24.9947 1134.33C23.3506 1136.26 21.9528 1138.4 20.3102 1140.33C18.666 1142.26 17.4707 1144.57 15.828 1146.5C14.1839 1148.43 12.5662 1150.38 10.9235 1152.31C9.27937 1154.24 7.36097 1155.93 5.71537 1157.86C4.07124 1159.79 2.47404 1161.76 0.828442 1163.69C-0.815693 1165.61 -1.85704 1168.06 -3.50411 1169.98C-5.15117 1171.91 -7.86451 1172.92 -9.51304 1174.85C-10.965 1176.55 -11.9594 1178.72 -13.6813 1180.16C-14.0568 1180.47 -15.1612 1179.84 -15.5264 1179.48C-15.8901 1179.11 -16.2612 1178.29 -15.9766 1177.81C-14.991 1176.13 -13.8866 1174.5 -12.6356 1173.02C-11.0545 1171.14 -9.95744 1168.86 -8.37491 1166.98C-6.79384 1165.1 -5.13503 1163.29 -3.55249 1161.42C-1.96996 1159.54 -0.440243 1157.62 1.14229 1155.74C2.72482 1153.87 4.22377 1151.92 5.8063 1150.04C7.38884 1148.17 9.02271 1146.34 10.6052 1144.46C12.1892 1142.58 14.4435 1141.28 16.026 1139.4C17.61 1137.52 18.5751 1135.13 20.1576 1133.25C21.7416 1131.38 23.2508 1129.44 24.8334 1127.56C26.4174 1125.69 28.1744 1123.96 29.757 1122.08C31.341 1120.21 33.1919 1118.56 34.7759 1116.68C36.3584 1114.81 38.1126 1113.08 39.6951 1111.2C41.2776 1109.33 42.1914 1106.89 43.7739 1105.01C45.3564 1103.13 47.1604 1101.44 48.743 1099.57C50.3255 1097.69 52.0738 1095.96 53.6563 1094.08C55.2476 1092.19 57.3582 1090.74 58.9495 1088.86C60.5394 1086.97 61.4854 1084.54 63.0752 1082.65C64.6651 1080.76 66.5058 1079.08 68.0956 1077.19C69.684 1075.3 71.5408 1073.64 73.1292 1071.75C74.7191 1069.86 76.4615 1068.1 78.0499 1066.21C79.6398 1064.32 81.3939 1062.57 82.9823 1060.68C84.5722 1058.79 85.326 1056.2 86.9144 1054.31C88.5043 1052.42 90.8539 1051.17 92.4438 1049.29C94.0351 1047.4 94.9151 1044.91 96.5064 1043.02C98.0978 1041.14 100.084 1039.58 101.676 1037.7C103.268 1035.81 104.894 1033.95 106.487 1032.07C108.112 1030.14 109.445 1027.97 111.073 1026.05C112.7 1024.12 114.564 1022.4 116.193 1020.48C117.821 1018.56 119.433 1016.63 121.063 1014.7C122.692 1012.78 124.731 1011.21 126.36 1009.29C127.99 1007.37 129.207 1005.1 130.837 1003.18C132.468 1001.26 133.461 998.797 135.09 996.877C136.719 994.957 138.56 993.215 140.19 991.295C141.819 989.373 143.757 987.715 145.385 985.793C147.014 983.87 148.544 981.867 150.17 979.944C151.791 978.029 153.324 976.04 154.943 974.124C156.562 972.208 158.766 970.786 160.384 968.869C162.002 966.952 163.618 965.033 165.234 963.116C166.852 961.197 167.539 958.494 169.155 956.577C170.773 954.659 173.344 953.546 174.961 951.629C176.578 949.71 178.16 947.764 179.778 945.847C181.396 943.929 183 942.002 184.618 940.085C186.237 938.168 187.292 935.776 188.911 933.86C190.53 931.943 192.79 930.569 194.409 928.653C196.029 926.738 196.914 924.201 198.535 922.287C200.197 920.324 201.96 918.445 203.624 916.484C205.291 914.524 207.52 913.042 209.186 911.084C210.854 909.125 212.001 906.722 213.668 904.764C215.336 902.806 216.728 900.612 218.395 898.654C220.064 896.696 221.639 894.659 223.307 892.701C224.976 890.743 227.066 889.144 228.734 887.186C230.401 885.227 232.321 883.484 233.987 881.524C235.652 879.564 236.994 877.329 238.657 875.366C240.259 873.477 241.488 871.273 243.088 869.382C244.688 867.493 247.086 866.279 248.686 864.388C250.285 862.498 251.149 859.986 252.747 858.094C254.346 856.203 256.573 854.842 258.171 852.951C259.77 851.059 260.709 848.61 262.306 846.72C263.904 844.828 266.244 843.563 267.842 841.671C269.44 839.779 271.31 838.118 272.908 836.226C274.505 834.334 275.855 832.232 277.453 830.34C279.051 828.448 280.665 826.57 282.264 824.678C283.863 822.788 285.552 820.974 287.151 819.082C288.933 816.974 290.579 814.751 292.362 812.643C294.146 810.535 295.759 808.286 297.544 806.178C299.327 804.07 300.926 801.807 302.709 799.7C304.493 797.592 306.573 795.737 308.356 793.629C310.14 791.522 312.233 789.676 314.015 787.567C314.488 787.007 314.812 785.482 315.873 784.006Z" fill="#FFE4C0" style="fill:#FFE4C0;fill:color(display-p3 1.0000 0.8941 0.7514);fill-opacity:1;"/>
<path d="M1100.83 -154.284C1102.11 -156.36 1103.83 -158.028 1105.05 -160.018C1106.33 -162.085 1106.81 -164.587 1108.04 -166.584C1109.31 -168.638 1111.16 -170.295 1112.4 -172.303C1113.66 -174.342 1115.09 -176.253 1116.35 -178.274C1117.7 -180.461 1118.64 -182.91 1120 -185.095C1121.35 -187.281 1123.13 -189.208 1124.49 -191.393C1125.85 -193.577 1126.48 -196.213 1127.84 -198.398C1129.2 -200.582 1130.49 -202.808 1131.85 -204.995C1133.21 -207.18 1134.96 -209.119 1136.32 -211.309C1137.6 -213.383 1139.15 -215.291 1140.43 -217.366C1141.71 -219.44 1142.61 -221.749 1143.89 -223.823C1145.17 -225.898 1147.06 -227.596 1148.34 -229.672C1149.62 -231.747 1150 -234.371 1151.28 -236.446C1152.56 -238.521 1154.34 -240.29 1155.62 -242.366C1156.89 -244.441 1157.56 -246.893 1158.84 -248.969C1160.12 -251.044 1162.17 -252.641 1163.45 -254.716C1164.73 -256.79 1165.17 -259.388 1166.44 -261.463C1167.72 -263.537 1169.66 -265.208 1170.94 -267.281C1172.22 -269.355 1173.35 -271.526 1174.63 -273.6C1175.94 -275.718 1177.37 -277.753 1178.68 -279.87C1179.99 -281.986 1180.9 -284.352 1182.21 -286.468C1183.52 -288.585 1184.88 -290.666 1186.19 -292.782C1187.51 -294.897 1189.15 -296.807 1190.46 -298.922C1191.77 -301.037 1192.67 -303.405 1193.99 -305.52C1195.3 -307.635 1196.69 -309.7 1198 -311.815C1199.32 -313.93 1201.2 -315.69 1202.51 -317.805C1203.82 -319.919 1204.48 -322.44 1205.8 -324.553C1207.11 -326.667 1208.89 -328.493 1210.2 -330.606C1211.47 -332.643 1212.91 -334.568 1214.18 -336.603C1215.45 -338.639 1216.62 -340.741 1217.89 -342.775C1219.16 -344.808 1220.11 -347.043 1221.39 -349.077C1222.66 -351.11 1223.72 -353.276 1224.99 -355.311C1226.27 -357.343 1228.32 -358.886 1229.6 -360.919C1230.87 -362.953 1231.88 -365.151 1233.15 -367.185C1234.42 -369.221 1234.92 -371.734 1236.19 -373.772C1237.5 -375.869 1238.85 -377.936 1240.15 -380.034C1241.46 -382.133 1242.99 -384.087 1244.3 -386.185C1245.6 -388.284 1246.75 -390.477 1248.05 -392.576C1249.36 -394.675 1250.61 -396.801 1251.92 -398.901C1253.22 -401 1254.95 -402.835 1256.25 -404.935C1257.55 -407.034 1259.06 -409.004 1260.37 -411.103C1261.67 -413.201 1262.69 -415.475 1264 -417.574C1265.3 -419.672 1266.81 -421.641 1268.12 -423.738C1269.42 -425.837 1270.93 -427.805 1272.24 -429.902C1273.73 -432.296 1274.48 -435.159 1275.99 -437.542C1277.5 -439.924 1279.19 -442.193 1280.72 -444.568C1282.24 -446.942 1284.36 -448.931 1285.89 -451.3C1286.7 -452.549 1287.89 -453.391 1289 -454.385C1289.44 -454.779 1289.25 -454.915 1290.17 -455.068C1290.14 -452.183 1289.51 -450.371 1288.27 -448.346C1286.97 -446.215 1285.86 -443.969 1284.56 -441.838C1283.26 -439.709 1281.23 -438.022 1279.93 -435.892C1278.63 -433.763 1277.57 -431.489 1276.27 -429.358C1274.97 -427.229 1273.92 -424.947 1272.62 -422.817C1271.32 -420.687 1269.57 -418.829 1268.27 -416.699C1266.97 -414.57 1265.91 -412.291 1264.61 -410.161C1263.3 -408.012 1262.66 -405.453 1261.34 -403.304C1260.03 -401.156 1258.11 -399.381 1256.79 -397.231C1255.48 -395.082 1253.97 -393.054 1252.66 -390.904C1251.35 -388.755 1250.24 -386.48 1248.93 -384.332C1247.61 -382.182 1246.48 -379.923 1245.17 -377.774C1243.86 -375.624 1242.64 -373.417 1241.33 -371.268C1240.01 -369.118 1239.1 -366.726 1237.78 -364.577C1236.47 -362.428 1234.89 -360.444 1233.58 -358.295C1232.26 -356.147 1230.15 -354.488 1228.83 -352.339C1227.52 -350.19 1226.83 -347.663 1225.51 -345.516C1224.2 -343.368 1222.49 -341.458 1221.18 -339.309C1219.86 -337.162 1218.98 -334.748 1217.67 -332.601C1216.35 -330.454 1215.43 -328.066 1214.11 -325.919C1212.8 -323.771 1211.31 -321.727 1210 -319.58C1208.64 -317.364 1206.51 -315.615 1205.15 -313.399C1203.79 -311.185 1202.66 -308.829 1201.29 -306.614C1199.93 -304.4 1199.3 -301.733 1197.94 -299.519C1196.57 -297.305 1194.08 -295.785 1192.72 -293.571C1191.35 -291.358 1190.9 -288.583 1189.53 -286.37C1188.17 -284.157 1186.94 -281.857 1185.58 -279.644C1184.21 -277.431 1182.71 -275.3 1181.35 -273.086C1179.98 -270.875 1177.76 -269.19 1176.39 -266.976C1175.03 -264.763 1173.84 -262.438 1172.48 -260.225C1171.11 -258.012 1170.32 -255.444 1168.96 -253.229C1167.59 -251.016 1165.74 -249.102 1164.38 -246.887C1163.07 -244.759 1161.54 -242.769 1160.23 -240.641C1158.92 -238.511 1158.23 -236.005 1156.93 -233.874C1155.62 -231.744 1154.36 -229.588 1153.06 -227.457C1151.75 -225.327 1150.51 -223.155 1149.21 -221.026C1147.9 -218.895 1146.54 -216.799 1145.24 -214.669C1143.93 -212.538 1142.98 -210.19 1141.68 -208.06C1140.37 -205.931 1138.37 -204.228 1137.06 -202.1C1135.75 -199.972 1134.94 -197.541 1133.63 -195.415C1132.31 -193.279 1130.01 -191.749 1128.69 -189.615C1127.37 -187.483 1126.95 -184.792 1125.63 -182.659C1124.31 -180.527 1123.16 -178.285 1121.84 -176.154C1120.52 -174.022 1119.23 -171.869 1117.91 -169.738C1116.58 -167.607 1115.3 -165.451 1113.98 -163.32C1112.65 -161.189 1110.6 -159.512 1109.27 -157.381C1107.95 -155.25 1107.27 -152.72 1105.95 -150.589C1105.63 -150.074 1104.83 -149.913 1104.38 -149.63C1101.82 -147.989 1101.31 -145.3 1100.61 -142.852C1099.88 -140.341 1099.13 -137.773 1098.36 -135.287C1097.69 -133.12 1097.93 -130.644 1097.19 -128.501C1096.44 -126.313 1095.34 -124.242 1094.57 -122.059C1093.8 -119.877 1092.93 -117.728 1092.16 -115.546C1091.39 -113.363 1090.65 -111.172 1089.89 -108.985C1089.13 -106.799 1088.24 -104.659 1087.51 -102.462C1086.68 -99.9391 1085.47 -97.5352 1084.66 -95.0037C1083.85 -92.4738 1083.19 -89.8909 1082.39 -87.3551C1081.6 -84.8192 1081.65 -82.0164 1080.85 -79.4805C1080.06 -76.9446 1078.09 -74.7799 1077.28 -72.2469C1076.53 -69.9033 1075.74 -67.5742 1075 -65.2275C1074.26 -62.8808 1073.65 -60.4916 1072.91 -58.1464C1072.17 -55.7997 1071.38 -53.4736 1070.62 -51.1328C1069.86 -48.7905 1069.75 -46.2415 1068.97 -43.908C1068.19 -41.5745 1067.91 -39.0621 1067.1 -36.7404C1066.34 -34.5697 1065.39 -32.7349 1065.3 -30.6508C1065.21 -28.5564 1064.66 -26.3359 1065.07 -24.1051C1065.51 -21.7159 1067.24 -19.5643 1067.67 -17.1736C1068.1 -14.7829 1068.2 -12.3307 1068.62 -9.93857C1069.04 -7.54788 1068.64 -5.01202 1069.05 -2.61844C1069.46 -0.226288 1070.55 2.05145 1070.96 4.44504C1071.37 6.83865 1071.83 9.22491 1072.23 11.6185C1072.64 14.0136 1073.36 16.3544 1073.77 18.7495C1074.17 21.143 1073.91 23.651 1074.32 26.0446C1074.73 28.4397 1075.45 30.7805 1075.86 33.1727C1076.28 35.6103 1076.79 38.0317 1077.21 40.4679C1077.63 42.9055 1077.82 45.3827 1078.24 47.8203C1078.66 50.2564 1079.46 52.628 1079.88 55.0641C1080.3 57.5017 1080.11 60.0449 1080.53 62.481C1080.95 64.9172 1081.6 67.3137 1082.02 69.7513C1082.45 72.1875 1082.93 74.6148 1083.35 77.0509C1083.77 79.4871 1084.09 81.9408 1084.51 84.377C1084.94 86.8351 1085.66 89.2419 1086.09 91.7C1086.51 94.1581 1087.25 96.5605 1087.68 99.0186C1088.11 101.475 1088.44 103.951 1088.87 106.408C1089.29 108.866 1089.32 111.393 1089.75 113.85C1090.18 116.308 1090.86 118.722 1091.28 121.18C1091.71 123.637 1091.33 126.236 1091.75 128.692C1092.18 131.15 1092.43 133.638 1092.85 136.097C1093.25 138.435 1094.11 140.695 1094.51 143.033C1094.91 145.371 1095.23 147.725 1095.63 150.063C1096.03 152.402 1096.69 154.696 1097.09 157.036C1097.49 159.373 1097.97 161.698 1098.37 164.036C1098.77 166.375 1098.73 168.789 1099.13 171.127C1099.53 173.467 1100.58 175.695 1100.98 178.034C1101.38 180.373 1100.76 182.884 1101.16 185.223C1101.56 187.561 1103.21 189.687 1103.61 192.026C1104.04 194.503 1103.74 197.105 1104.16 199.584C1104.58 202.061 1105.44 204.466 1105.86 206.943C1106.29 209.422 1106.07 212.009 1106.5 214.486C1106.92 216.965 1107.45 219.426 1107.87 221.903C1108.3 224.382 1109.05 226.803 1109.47 229.282C1109.9 231.759 1110.14 234.269 1110.56 236.747C1110.99 239.225 1111.83 241.631 1112.26 244.109C1112.68 246.587 1112.51 249.167 1112.94 251.644C1113.36 254.123 1113.42 256.663 1113.84 259.142C1114.28 261.707 1115.06 264.215 1115.5 266.78C1115.94 269.347 1116.11 271.959 1116.55 274.524C1116.99 277.091 1118.53 279.467 1118.97 282.032C1119.41 284.599 1119.05 287.301 1119.49 289.866C1119.93 292.432 1121.4 294.822 1121.84 297.388C1122.28 299.953 1122.57 302.545 1123.01 305.112C1123.45 307.677 1123.83 310.254 1124.26 312.821C1124.7 315.403 1124.3 318.127 1124.74 320.71C1125.17 323.293 1125.67 325.865 1126.11 328.448C1126.54 331.031 1126.64 333.671 1127.08 336.253C1127.51 338.838 1128.66 341.299 1129.1 343.883C1129.53 346.466 1129.98 349.047 1130.41 351.631C1130.84 354.214 1131.24 356.804 1131.67 359.387C1132.11 361.97 1132.3 364.594 1132.74 367.177C1133.17 369.759 1134.45 372.2 1134.89 374.783C1135.33 377.393 1134.58 380.204 1135.02 382.813C1135.46 385.422 1136.04 388.008 1136.49 390.617C1136.93 393.226 1138.41 395.658 1138.86 398.266C1139.3 400.875 1138.77 403.65 1139.22 406.259C1139.66 408.868 1140.08 411.48 1140.53 414.089C1140.97 416.699 1141.32 419.324 1141.76 421.932C1142.21 424.541 1142.4 427.191 1142.85 429.8C1143.29 432.395 1144.57 434.846 1145.01 437.44C1145.46 440.033 1145.35 442.722 1145.79 445.316C1146.23 447.911 1146.73 450.494 1147.16 453.09C1147.54 455.342 1147.71 457.365 1146.6 459.531C1145.76 461.189 1143.96 461.827 1143.14 460.213C1142.12 458.221 1142.18 455.793 1141.79 453.607C1141.34 451.096 1140.8 448.605 1140.36 446.091C1139.92 443.577 1139.6 441.045 1139.17 438.53C1138.74 436.016 1136.91 433.74 1136.48 431.225C1136.06 428.708 1136.4 426.063 1135.98 423.547C1135.56 421.031 1135.74 418.413 1135.32 415.896C1134.88 413.287 1133.53 410.831 1133.09 408.22C1132.65 405.611 1132.4 402.968 1131.97 400.359C1131.53 397.748 1131.6 395.052 1131.16 392.443C1130.73 389.832 1129.42 387.367 1128.98 384.758C1128.55 382.147 1129.15 379.362 1128.71 376.753C1128.28 374.142 1127.03 371.668 1126.6 369.057C1126.16 366.448 1125.33 363.903 1124.89 361.294C1124.44 358.641 1124.46 355.91 1124.01 353.258C1123.56 350.605 1123.49 347.89 1123.04 345.237C1122.59 342.585 1122.14 339.933 1121.69 337.28C1121.25 334.628 1120.88 331.963 1120.43 329.312C1119.98 326.659 1118.91 324.111 1118.46 321.459C1118.01 318.807 1118.32 316.027 1117.87 313.375C1117.42 310.723 1116.63 308.129 1116.18 305.477C1115.78 303.138 1114.63 300.927 1114.23 298.588C1113.83 296.25 1114.44 293.739 1114.03 291.401C1113.63 289.063 1112.18 286.906 1111.77 284.568C1111.37 282.23 1111.31 279.832 1110.91 277.494C1110.51 275.157 1109.81 272.87 1109.41 270.532C1109.01 268.193 1109.13 265.765 1108.73 263.426C1108.33 261.088 1107.51 258.821 1107.11 256.481C1106.71 254.144 1106.5 251.773 1106.1 249.433C1105.7 247.057 1106.25 244.521 1105.85 242.143C1105.45 239.766 1104.1 237.547 1103.71 235.169C1103.31 232.79 1102.57 230.47 1102.18 228.091C1101.78 225.714 1101.87 223.257 1101.47 220.878C1101.08 218.499 1100.72 216.116 1100.33 213.738C1099.94 211.359 1100.28 208.859 1099.89 206.481C1099.5 204.102 1099.09 201.726 1098.7 199.347C1098.31 196.97 1096.9 194.76 1096.5 192.381C1096.07 189.76 1096.04 187.071 1095.6 184.451C1095.17 181.83 1094.84 179.191 1094.4 176.569C1093.96 173.948 1093.3 171.365 1092.87 168.744C1092.43 166.122 1091.84 163.526 1091.41 160.905C1090.97 158.284 1091.55 155.494 1091.11 152.873C1090.68 150.252 1088.95 147.845 1088.51 145.225C1088.11 142.807 1088.83 140.203 1088.43 137.784C1088.02 135.366 1087.45 132.976 1087.04 130.559C1086.64 128.141 1086.12 125.743 1085.72 123.324C1085.32 120.906 1084.21 118.605 1083.81 116.186C1083.41 113.767 1082.86 111.374 1082.46 108.955C1082.06 106.537 1081.88 104.082 1081.48 101.665C1081.08 99.246 1080.59 96.8421 1080.19 94.4236C1079.77 91.9332 1080.24 89.2976 1079.82 86.8072C1079.41 84.3183 1078.81 81.8587 1078.4 79.3683C1077.99 76.8779 1077.44 74.4109 1077.03 71.9205C1076.61 69.4301 1075.44 67.0659 1075.02 64.577C1074.61 62.0865 1074.67 59.5169 1074.26 57.0266C1073.85 54.5361 1074.13 51.9313 1073.72 49.4409C1073.31 46.9505 1072.53 44.5203 1072.12 42.0299C1071.71 39.5409 1071.33 37.0446 1070.91 34.5557C1070.51 32.1211 1070.6 29.6057 1070.2 27.1711C1069.8 24.7379 1068.96 22.3751 1068.56 19.9419C1068.16 17.5072 1067.75 15.074 1067.35 12.6408C1066.95 10.2076 1065.84 7.89026 1065.44 5.45706C1065.03 3.0224 1064.66 0.583344 1064.26 -1.84988C1063.86 -4.28455 1064.59 -6.90692 1064.19 -9.34012C1063.78 -11.7733 1062.21 -14.0129 1061.81 -16.4461C1061.4 -18.8808 1061 -21.3155 1060.6 -23.7487C1060.35 -25.2432 1060.78 -26.9973 1060.43 -28.8908C1059.57 -28.5755 1058.13 -28.5241 1057.7 -28.0137C1056.03 -26.0557 1054.36 -24.108 1052.69 -22.1471C1051.03 -20.1861 1049.25 -18.3279 1047.59 -16.364C1045.93 -14.4016 1045.18 -11.6677 1043.53 -9.70093C1041.87 -7.73413 1039.53 -6.34518 1037.88 -4.37692C1036.23 -2.4072 1034.9 -0.164673 1033.25 1.80945C1031.83 3.52106 1030.63 5.4248 1029.22 7.14813C1027.8 8.87296 1026.54 10.7209 1025.13 12.4472C1023.72 14.1734 1021.22 15.0065 1019.8 16.7269C1018.38 18.4473 1017.9 20.948 1016.46 22.6537C1014.95 24.446 1013.25 26.0813 1011.72 27.8575C1010.19 29.6351 1008.36 31.156 1006.82 32.9277C1005.29 34.6995 1003.96 36.656 1002.43 38.4321C1000.9 40.2097 999.745 42.2997 998.232 44.092C996.794 45.7963 994.525 46.8039 993.105 48.5243C991.685 50.2447 990.993 52.562 989.579 54.2868C988.165 56.0131 986.678 57.6777 985.258 59.3981C983.839 61.1185 981.652 62.198 980.214 63.9037C978.704 65.696 978.064 68.2319 976.539 70.0124C975.012 71.7929 972.573 72.7874 971.04 74.5635C969.509 76.3381 968.848 78.8637 967.317 80.6413C965.787 82.4189 963.761 83.7697 962.242 85.5561C960.705 87.3616 959.523 89.4619 958.002 91.282C956.482 93.1006 954.92 94.8841 953.402 96.7043C951.886 98.5244 950.177 100.188 948.647 101.997C947.134 103.788 945.696 105.644 944.178 107.431C942.66 109.219 941.367 111.196 939.846 112.981C938.326 114.768 936.464 116.261 934.943 118.046C933.422 119.831 931.743 121.481 930.222 123.264C928.702 125.049 927.375 127 925.852 128.783C924.331 130.567 923.289 132.761 921.768 134.544C920.245 136.328 917.752 137.281 916.23 139.065C914.707 140.849 914.028 143.352 912.506 145.135C910.935 146.977 909.266 148.736 907.695 150.576C906.123 152.419 904.251 154.003 902.681 155.845C901.108 157.685 899.163 159.208 897.593 161.05C896.022 162.892 895.234 165.401 893.665 167.245C892.096 169.086 890.657 171.038 889.09 172.881C887.523 174.725 885.441 176.132 883.873 177.975C882.307 179.819 880.417 181.387 878.847 183.229C877.337 185.002 876.261 187.149 874.748 188.921C873.236 190.693 871.451 192.233 869.937 194.004C868.422 195.775 866.794 197.45 865.282 199.221C863.77 200.995 862.894 203.31 861.385 205.085C859.877 206.861 858.082 208.394 856.579 210.174C855.092 211.936 853.166 213.334 851.69 215.107C850.215 216.88 849.641 219.4 848.17 221.176C846.699 222.952 844.97 224.517 843.495 226.289C842.019 228.062 839.885 229.281 838.397 231.042C836.931 232.776 835.391 234.44 833.914 236.164C832.438 237.889 831.232 239.842 829.751 241.561C828.268 243.281 826.449 244.71 824.969 246.43C823.488 248.151 822.665 250.436 821.191 252.161C819.374 254.289 817.888 256.7 816.075 258.831C814.263 260.962 811.944 262.663 810.131 264.796C808.32 266.93 806.938 269.428 805.125 271.56C803.312 273.693 800.68 275.126 798.864 277.255C797.048 279.386 795.315 281.585 793.496 283.713C791.679 285.843 789.895 288 788.075 290.128C786.257 292.255 784.875 294.757 783.056 296.884C781.238 299.012 778.958 300.747 777.141 302.877C775.692 304.573 774.099 306.149 772.65 307.846C771.203 309.544 770.588 311.954 769.141 313.652C767.693 315.351 765.794 316.665 764.347 318.366C762.903 320.066 761.961 322.193 760.518 323.895C758.978 325.714 756.813 327.003 755.276 328.823C753.739 330.645 752.635 332.83 751.099 334.652C749.563 336.475 747.779 338.085 746.241 339.905C744.704 341.727 743.005 343.409 741.463 345.227C740.143 346.784 738.989 348.485 737.65 350.028C736.311 351.571 734.819 352.975 733.443 354.484C732.568 355.443 731.487 356.147 730.306 356.646C729.492 356.989 728.068 357.41 727.53 356.894C726.945 356.331 726.942 354.814 727.233 353.981C727.77 352.445 728.606 350.983 729.655 349.735C731.389 347.674 733.128 345.62 734.866 343.563C736.603 341.507 738.517 339.599 740.259 337.546C742 335.492 742.943 332.761 744.687 330.709C746.431 328.659 748.909 327.232 750.655 325.182C752.399 323.13 753.807 320.793 755.55 318.741C757.313 316.666 759.673 315.098 761.436 313.023C763.201 310.949 764.031 308.082 765.795 306.006C767.558 303.933 770.192 302.596 771.955 300.523C773.719 298.449 775.541 296.422 777.304 294.348C779.068 292.273 780.415 289.844 782.179 287.77C783.942 285.695 785.72 283.631 787.483 281.557C789.247 279.482 790.504 276.977 792.267 274.901C794.031 272.827 796.183 271.082 797.946 269.007C799.71 266.933 801.107 264.545 802.869 262.47C804.634 260.396 806.533 258.437 808.296 256.361C810.061 254.287 811.939 252.31 813.702 250.233C815.464 248.158 817.762 246.537 819.525 244.461C821.286 242.385 822.847 240.138 824.611 238.063C826.374 235.988 828.281 234.036 830.047 231.963C831.814 229.891 832.707 227.072 834.479 225.004C836.07 223.147 837.91 221.5 839.505 219.645C841.101 217.791 843.062 216.251 844.659 214.398C846.258 212.546 847.411 210.309 849.009 208.458C850.608 206.607 852.919 205.371 854.517 203.519C856.115 201.666 857.358 199.507 858.953 197.653C860.549 195.8 862.171 193.968 863.763 192.109C865.534 190.041 867.473 188.117 869.241 186.045C871.006 183.972 872.624 181.774 874.387 179.699C876.151 177.625 878.032 175.649 879.793 173.572C881.555 171.497 882.985 169.137 884.746 167.062C886.508 164.986 888.491 163.097 890.253 161.022C892.018 158.947 893.558 156.684 895.321 154.608C897.085 152.534 898.951 150.546 900.714 148.47C902.477 146.395 904.27 144.347 906.033 142.272C907.796 140.197 910.036 138.526 911.799 136.452C913.562 134.377 915.41 132.375 917.173 130.3C918.937 128.224 920.033 125.581 921.796 123.506C923.559 121.431 926.043 119.97 927.806 117.895C929.57 115.819 930.452 112.996 932.215 110.921C933.978 108.845 936.395 107.326 938.159 105.251C939.922 103.177 941.078 100.585 942.842 98.5097C944.607 96.4359 946.422 94.4074 948.187 92.3336C949.951 90.2582 951.699 88.1712 953.464 86.0973C955.227 84.0234 956.83 81.8117 958.596 79.7393C960.36 77.6655 962.843 76.2047 964.611 74.1323C966.376 72.0613 967.993 69.8599 969.76 67.7904C971.268 66.026 972.522 64.0475 974.031 62.286C975.54 60.526 976.954 58.6824 978.465 56.9224C979.975 55.1624 982.146 53.9685 983.657 52.2085C985.167 50.4485 985.783 47.9215 987.294 46.1615C988.803 44.4 990.273 42.6063 991.781 40.8434C993.288 39.0819 995.064 37.5492 996.569 35.7833C998.171 33.903 1000.33 32.4965 1001.93 30.6133C1003.53 28.7301 1004.7 26.4817 1006.29 24.597C1007.89 22.7109 1010.03 21.2912 1011.63 19.4051C1013.23 17.5189 1014.22 15.1224 1015.82 13.2392C1017.41 11.3545 1018.64 9.15015 1020.24 7.2684C1021.84 5.38669 1023.93 3.92438 1025.54 2.04703C1027.09 0.237183 1029.18 -1.10187 1030.75 -2.90002C1032.31 -4.69815 1033.18 -7.0976 1034.76 -8.88986C1036.33 -10.6836 1038.24 -12.1723 1039.81 -13.966C1041.38 -15.7598 1042.87 -17.6268 1044.43 -19.4264C1046.46 -21.7716 1048.01 -24.5334 1050.05 -26.8741C1052.08 -29.212 1054.12 -31.5704 1056.28 -33.8129C1058.1 -35.7079 1058.5 -38.7527 1059.12 -41.5173C1059.89 -44.9493 1060.81 -48.4386 1062.5 -51.5494C1062.93 -52.3428 1063.36 -53.0013 1063.45 -53.874C1063.82 -57.2693 1065.08 -60.5195 1066.94 -63.3868C1067.49 -64.2316 1067.73 -65.1879 1067.87 -66.2263C1068.26 -69.277 1069.49 -71.9947 1071.17 -74.6552C1071.99 -75.9591 1071.58 -77.8643 1071.65 -79.4688C1071.78 -82.4402 1072.56 -85.3105 1074.69 -87.6484C1075.73 -88.788 1076 -90.4761 1076.54 -92.0352C1077.31 -94.3144 1078.68 -96.4059 1079.39 -98.71C1079.79 -100.014 1079.26 -101.582 1079.61 -102.899C1079.93 -104.069 1079.9 -105.565 1080.46 -106.601C1081.46 -108.435 1082.26 -110.146 1082.82 -112.086C1083.37 -114.025 1084.86 -115.855 1084.83 -117.966C1084.82 -118.671 1084.18 -119.793 1084.6 -120.381C1086.24 -122.646 1088.29 -124.628 1089.21 -127.181C1090.13 -129.745 1090.5 -132.52 1091.36 -135.111C1091.97 -136.987 1092.62 -138.847 1093.28 -140.707C1093.62 -141.672 1093.91 -144.225 1094.18 -146.73C1094.45 -149.26 1094.24 -151.768 1094.11 -152.742C1093.77 -155.203 1094.26 -157.777 1093.93 -160.24C1093.59 -162.702 1093.39 -165.181 1093.06 -167.643C1092.72 -170.106 1091.88 -172.5 1091.55 -174.962C1091.22 -177.425 1090.61 -179.85 1090.28 -182.313C1089.94 -184.775 1089.97 -187.285 1089.63 -189.747C1089.3 -192.21 1088.25 -194.576 1087.92 -197.038C1087.58 -199.501 1088.18 -202.089 1087.85 -204.551C1087.52 -207.013 1087.13 -209.468 1086.8 -211.931C1086.46 -214.393 1085.85 -216.818 1085.52 -219.28C1085.19 -221.743 1085.09 -224.236 1084.76 -226.699C1084.43 -229.161 1083.82 -231.587 1083.49 -234.051C1083.17 -236.459 1082.37 -238.805 1082.05 -241.214C1081.72 -243.623 1081.22 -246.009 1080.9 -248.417C1080.58 -250.827 1080.16 -253.223 1079.84 -255.633C1079.52 -258.041 1079.83 -260.536 1079.51 -262.946C1079.19 -265.354 1078.63 -267.733 1078.31 -270.141C1077.99 -272.551 1078.59 -275.084 1078.27 -277.494C1077.95 -279.902 1076.77 -282.197 1076.45 -284.607C1076.13 -287.017 1075.33 -289.362 1075.01 -291.772C1074.69 -294.18 1075.64 -296.76 1075.32 -299.17C1075 -301.579 1073.84 -303.876 1073.52 -306.286C1073.2 -308.696 1073.42 -311.176 1073.09 -313.585C1072.75 -316.195 1072.46 -318.811 1072.11 -321.42C1071.77 -324.03 1071.08 -326.593 1070.74 -329.203C1070.39 -331.813 1070.32 -334.458 1069.97 -337.067C1069.63 -339.676 1068.84 -342.228 1068.5 -344.837C1068.16 -347.446 1067.98 -350.078 1067.63 -352.688C1067.29 -355.297 1066.24 -357.814 1065.9 -360.423C1065.55 -363.033 1066.46 -365.808 1066.12 -368.417C1065.77 -371.026 1064.51 -373.513 1064.16 -376.123C1063.82 -378.733 1064.04 -381.417 1063.7 -384.027C1063.38 -386.45 1062.7 -388.825 1062.38 -391.247C1062.06 -393.668 1061.51 -396.061 1061.19 -398.484C1060.86 -400.905 1060.6 -403.334 1060.27 -405.757C1059.95 -408.178 1060.53 -410.721 1060.21 -413.143C1059.88 -415.566 1059.64 -417.999 1059.32 -420.42C1059 -422.842 1058.14 -425.193 1057.82 -427.616C1057.5 -430.037 1057.13 -432.454 1056.81 -434.876C1056.49 -437.297 1055.53 -439.635 1055.21 -442.058C1054.89 -444.48 1055.4 -447.013 1055.07 -449.435C1054.75 -451.857 1054.15 -454.242 1053.83 -456.665C1053.51 -459.086 1052.98 -461.481 1052.66 -463.904C1052.33 -466.456 1052.63 -469.09 1052.29 -471.642C1051.96 -474.193 1051.16 -476.685 1050.83 -479.235C1050.5 -481.787 1050.78 -484.418 1050.44 -486.97C1050.11 -489.521 1048.55 -491.913 1048.22 -494.464C1047.88 -497.016 1047.71 -499.588 1047.38 -502.139C1047.04 -504.691 1047.08 -507.291 1046.75 -509.843C1046.42 -512.395 1046.15 -514.954 1045.82 -517.506C1045.49 -520.057 1044.65 -522.544 1044.32 -525.095C1043.99 -527.647 1043.89 -530.23 1043.56 -532.782C1043.23 -535.332 1043.03 -537.902 1042.7 -540.454C1042.37 -543.006 1042.61 -545.631 1042.28 -548.183C1041.94 -550.735 1041.26 -553.24 1040.93 -555.792C1040.6 -558.344 1040.24 -560.892 1039.9 -563.444C1039.57 -565.994 1039.6 -568.593 1039.27 -571.145C1038.94 -573.697 1038.41 -576.223 1038.08 -578.775C1037.75 -581.327 1037.75 -583.923 1037.42 -586.474C1037.09 -589.026 1036.67 -591.566 1036.33 -594.116C1036 -596.659 1035.44 -599.172 1035.11 -601.714C1034.77 -604.255 1034.42 -606.796 1034.08 -609.337C1033.75 -611.879 1033.35 -614.412 1033.02 -616.954C1032.68 -619.495 1032.21 -622.02 1031.87 -624.561C1031.54 -627.103 1031.12 -629.635 1030.79 -632.176C1030.45 -634.718 1029.98 -637.242 1029.65 -639.784C1029.31 -642.326 1029.53 -644.941 1029.19 -647.482C1028.86 -650.024 1028.63 -652.579 1028.29 -655.121C1027.96 -657.664 1026.45 -660.052 1026.12 -662.595C1025.83 -664.836 1026.09 -667.246 1026.18 -669.51C1026.2 -670.006 1027.56 -670.971 1028.08 -670.999C1028.61 -671.025 1029.23 -670.095 1029.4 -669.554C1030 -667.68 1030.82 -665.841 1031.09 -663.896C1031.42 -661.436 1032.27 -659.046 1032.61 -656.586C1032.95 -654.126 1033.17 -651.651 1033.5 -649.191C1033.84 -646.73 1033.95 -644.24 1034.29 -641.78C1034.63 -639.319 1034.4 -636.782 1034.73 -634.322C1035.07 -631.862 1035.16 -629.368 1035.5 -626.908C1035.84 -624.448 1036.59 -622.046 1036.93 -619.586C1037.27 -617.127 1038.14 -614.741 1038.48 -612.281C1038.82 -609.821 1039.47 -607.404 1039.8 -604.943C1040.14 -602.484 1039.84 -599.938 1040.18 -597.476C1040.52 -595.017 1040.51 -592.51 1040.85 -590.051C1041.19 -587.591 1041.87 -585.178 1042.21 -582.719C1042.55 -580.259 1043.55 -577.889 1043.88 -575.429C1044.22 -572.97 1043.34 -570.343 1043.68 -567.884C1044.02 -565.424 1045.31 -563.095 1045.65 -560.635C1045.99 -558.161 1045.88 -555.625 1046.22 -553.151C1046.56 -550.677 1047.31 -548.259 1047.65 -545.785C1047.99 -543.312 1048.34 -540.838 1048.69 -538.365C1049.03 -535.891 1049.62 -533.452 1049.96 -530.978C1050.31 -528.505 1049.91 -525.928 1050.25 -523.454C1050.59 -520.979 1051.03 -518.52 1051.38 -516.046C1051.72 -513.573 1051.64 -511.04 1051.98 -508.566C1052.32 -506.091 1052.46 -503.589 1052.8 -501.116C1053.14 -498.642 1054.77 -496.347 1055.11 -493.872C1055.46 -491.398 1054.94 -488.805 1055.28 -486.331C1055.62 -483.858 1056.76 -481.494 1057.1 -479.02C1057.45 -476.495 1056.83 -473.838 1057.17 -471.314C1057.51 -468.788 1058.17 -466.307 1058.51 -463.782C1058.86 -461.257 1059.45 -458.766 1059.79 -456.241C1060.13 -453.715 1060.07 -451.137 1060.41 -448.611C1060.75 -446.086 1060.77 -443.517 1061.1 -440.992C1061.44 -438.466 1061.73 -435.933 1062.07 -433.408C1062.41 -430.882 1063.09 -428.403 1063.43 -425.878C1063.77 -423.354 1064.38 -420.863 1064.72 -418.339C1065.06 -415.814 1066.06 -413.378 1066.4 -410.853C1066.74 -408.338 1065.92 -405.666 1066.27 -403.15C1066.61 -400.637 1067.22 -398.159 1067.56 -395.646C1067.91 -393.13 1068.45 -390.644 1068.8 -388.129C1069.14 -385.615 1069.11 -383.05 1069.46 -380.536C1069.8 -378.022 1070.57 -375.565 1070.92 -373.051C1071.26 -370.538 1072.29 -368.118 1072.64 -365.604C1072.99 -363.09 1073.23 -360.561 1073.58 -358.047C1073.92 -355.534 1074.25 -353.017 1074.59 -350.501C1074.93 -347.988 1074.82 -345.411 1075.16 -342.897C1075.51 -340.381 1076.33 -337.934 1076.67 -335.418C1077.02 -332.84 1076.25 -330.11 1076.6 -327.531C1076.95 -324.952 1078.11 -322.482 1078.45 -319.902C1078.8 -317.323 1078.74 -314.69 1079.08 -312.11C1079.42 -309.532 1079.5 -306.917 1079.84 -304.337C1080.18 -301.757 1081.1 -299.253 1081.45 -296.673C1081.79 -294.095 1081.41 -291.42 1081.75 -288.84C1082.1 -286.26 1082.86 -283.736 1083.21 -281.157C1083.55 -278.578 1084.46 -276.075 1084.81 -273.497C1085.15 -271.014 1085.36 -268.515 1085.7 -266.033C1086.03 -263.55 1086.55 -261.092 1086.89 -258.61C1087.23 -256.127 1086.43 -253.49 1086.77 -251.009C1087.11 -248.526 1088.01 -246.122 1088.35 -243.64C1088.69 -241.157 1088.64 -238.623 1088.98 -236.141C1089.32 -233.658 1089.58 -231.165 1089.92 -228.683C1090.26 -226.201 1091.08 -223.784 1091.42 -221.303C1091.76 -218.821 1091.81 -216.3 1092.15 -213.818C1092.49 -211.335 1093.47 -208.942 1093.81 -206.459C1094.15 -203.977 1093.58 -201.371 1093.92 -198.889C1094.24 -196.584 1094.44 -194.262 1094.75 -191.956C1095.07 -189.651 1096.32 -187.471 1096.63 -185.166C1096.95 -182.859 1097.41 -180.573 1097.72 -178.266C1098.03 -175.961 1097.51 -173.541 1097.82 -171.234C1098.13 -168.928 1099.45 -166.759 1099.77 -164.453C1100.08 -162.146 1099.51 -159.72 1099.83 -157.413C1099.93 -156.679 1100.44 -156.08 1100.83 -154.284Z" fill="#FFE4C0" style="fill:#FFE4C0;fill:color(display-p3 1.0000 0.8941 0.7514);fill-opacity:1;"/>
<path d="M551.226 583.332C553.273 580.598 555.308 577.853 557.373 575.132C557.453 575.026 557.623 574.808 557.445 575.038C557.556 574.894 557.669 574.751 557.783 574.607C558.039 574.286 558.297 573.967 558.561 573.652C559.037 573.083 559.537 572.536 560.043 571.993C561.262 570.686 562.296 569.366 562.906 567.669C563.393 566.314 562.358 564.6 560.985 564.287C559.439 563.935 558.124 564.757 557.603 566.207C557.506 566.474 557.48 566.411 557.607 566.206C557.525 566.339 557.461 566.484 557.38 566.618C557.277 566.788 557.16 566.945 557.051 567.111C556.833 567.444 557.318 566.829 557.04 567.118C556.569 567.606 556.123 568.13 555.664 568.63C554.517 569.88 553.482 571.225 552.458 572.575C550.45 575.224 548.47 577.895 546.477 580.556C545.611 581.711 546.252 583.678 547.464 584.319C548.907 585.082 550.302 584.565 551.226 583.332Z" fill="#FFE4C0" style="fill:#FFE4C0;fill:color(display-p3 1.0000 0.8941 0.7514);fill-opacity:1;"/>
<path d="M563.255 567.646L576.241 551.07C577.127 549.939 577.426 548.267 576.241 547.18C575.252 546.272 573.299 545.97 572.351 547.18C568.023 552.707 563.695 558.232 559.365 563.757C558.481 564.887 558.182 566.559 559.365 567.646C560.354 568.554 562.308 568.856 563.255 567.646Z" fill="#FFE4C0" style="fill:#FFE4C0;fill:color(display-p3 1.0000 0.8941 0.7514);fill-opacity:1;"/>
<path d="M576.996 548.913C577.002 548.372 576.924 549.254 577.001 548.914C577.071 548.597 576.694 549.41 577.024 548.885C577.199 548.606 577.373 548.33 577.562 548.061C577.763 547.778 577.967 547.497 578.174 547.219C578.288 547.065 578.406 546.912 578.52 546.757C578.714 546.497 578.262 547.078 578.586 546.675C579.503 545.532 580.45 544.419 581.459 543.357C582.441 542.324 583.469 541.334 584.538 540.394C585.086 539.91 585.648 539.44 586.219 538.982C586.368 538.862 586.521 538.743 586.672 538.624C587.009 538.357 586.161 539.005 586.757 538.561C587.065 538.331 587.374 538.102 587.687 537.878C588.851 537.039 589.532 535.444 588.674 534.114C587.929 532.96 586.16 532.228 584.91 533.128C582.156 535.113 579.57 537.319 577.253 539.805C576.068 541.076 574.969 542.418 573.912 543.798C572.736 545.331 571.52 546.883 571.496 548.913C571.48 550.352 572.772 551.729 574.246 551.663C575.751 551.595 576.979 550.454 576.996 548.913Z" fill="#FFE4C0" style="fill:#FFE4C0;fill:color(display-p3 1.0000 0.8941 0.7514);fill-opacity:1;"/>
<path d="M583.373 535.206C580.22 539.471 577.295 543.888 574.566 548.434C573.363 550.435 572.175 552.478 570.601 554.214C569.711 555.197 568.756 556.101 567.967 557.171C567.631 557.627 567.365 558.123 567.04 558.585C566.457 559.42 566.779 558.752 567.109 558.871C565.712 558.367 564.097 559.439 563.726 560.792C563.306 562.319 564.245 563.669 565.647 564.175C567.257 564.757 569.057 564.232 570.323 563.139C571.398 562.209 571.919 560.883 572.844 559.839C574.789 557.648 576.64 555.551 578.197 553.048C581.384 547.928 584.532 542.837 588.122 537.983C589.007 536.787 588.32 534.913 587.135 534.219C585.737 533.401 584.259 534.008 583.373 535.206Z" fill="#FFE4C0" style="fill:#FFE4C0;fill:color(display-p3 1.0000 0.8941 0.7514);fill-opacity:1;"/>
<path d="M557.783 576.501C558.713 575.627 559.644 574.755 560.574 573.881C561.658 572.863 561.601 571.018 560.574 569.991C559.454 568.87 557.82 569.026 556.685 569.991C555.926 570.638 555.445 571.5 555.181 572.453C554.468 575.026 557.89 577.194 559.778 575.129C565.951 568.378 571.892 561.42 577.595 554.267C578.52 553.107 578.729 551.511 577.595 550.377C576.636 549.418 574.637 549.21 573.707 550.377C568.004 557.53 562.061 564.488 555.888 571.239C557.421 572.132 558.953 573.024 560.485 573.916C560.461 574.002 560.023 574.35 560.574 573.881L556.685 569.991C555.755 570.865 554.825 571.739 553.893 572.612C551.308 575.041 555.203 578.924 557.783 576.501Z" fill="#FFE4C0" style="fill:#FFE4C0;fill:color(display-p3 1.0000 0.8941 0.7514);fill-opacity:1;"/>
<path d="M561.695 571.789C562.727 571.258 563.713 570.702 564.634 569.991C565.715 569.156 566.548 568.131 567.299 566.992C568.61 564.995 569.847 562.944 571.115 560.921C571.882 559.701 571.414 557.837 570.13 557.158C568.776 556.443 567.185 556.842 566.366 558.145C565.159 560.069 563.965 562.003 562.742 563.917C562.614 564.117 562.485 564.315 562.352 564.51C562.268 564.632 562.179 564.749 562.097 564.871C561.897 565.167 562.44 564.47 562.202 564.734C562.023 564.931 561.858 565.136 561.668 565.324C561.513 565.476 561.29 565.611 561.157 565.78C561.299 565.601 561.588 565.462 561.234 565.711C561.14 565.777 561.047 565.842 560.95 565.903C560.734 566.046 560.513 566.179 560.29 566.308C559.841 566.566 559.379 566.804 558.918 567.04C557.637 567.698 557.157 569.601 557.933 570.802C558.775 572.11 560.324 572.493 561.695 571.789Z" fill="#FFE4C0" style="fill:#FFE4C0;fill:color(display-p3 1.0000 0.8941 0.7514);fill-opacity:1;"/>
<path d="M563.198 568.977C563.438 568.3 563.675 567.622 563.921 566.948C563.983 566.779 564.044 566.61 564.109 566.442C564.139 566.364 564.398 565.826 564.211 566.17C564.022 566.521 564.324 565.924 564.332 565.909C564.393 565.779 564.456 565.651 564.521 565.523C564.684 565.205 564.863 564.894 565.059 564.595C565.15 564.459 565.25 564.328 565.342 564.193C565.553 563.885 564.92 564.699 565.335 564.208C565.743 563.725 566.156 563.25 566.596 562.795C567.036 562.342 567.495 561.907 567.972 561.49C568.196 561.294 568.427 561.1 568.66 560.912C568.925 560.698 568.893 560.686 568.652 560.911C568.773 560.799 568.921 560.71 569.053 560.614C570.104 559.85 571.219 559.183 572.382 558.602C573.671 557.96 574.136 556.031 573.368 554.84C572.517 553.52 570.986 553.165 569.606 553.853C566.997 555.156 564.581 556.94 562.569 559.051C561.51 560.161 560.476 561.376 559.772 562.747C558.991 564.265 558.463 565.911 557.894 567.515C557.412 568.873 558.439 570.585 559.816 570.899C561.356 571.249 562.682 570.431 563.198 568.977Z" fill="#FFE4C0" style="fill:#FFE4C0;fill:color(display-p3 1.0000 0.8941 0.7514);fill-opacity:1;"/>
<path d="M795.336 280.535C800.163 272.789 806.304 265.972 813.443 260.29C814.606 259.364 814.41 257.367 813.443 256.401C812.294 255.252 810.72 255.472 809.554 256.401C802.061 262.366 795.653 269.632 790.587 277.758C788.71 280.771 793.466 283.536 795.336 280.535Z" fill="#FFE4C0" style="fill:#FFE4C0;fill:color(display-p3 1.0000 0.8941 0.7514);fill-opacity:1;"/>
<path d="M796.073 281.065C800.542 275.486 805.012 269.906 809.481 264.329C810.379 263.208 810.658 261.518 809.481 260.439C808.483 259.522 806.552 259.241 805.592 260.439L792.184 277.175C791.286 278.296 791.007 279.985 792.184 281.065C793.182 281.981 795.112 282.263 796.073 281.065Z" fill="#FFE4C0" style="fill:#FFE4C0;fill:color(display-p3 1.0000 0.8941 0.7514);fill-opacity:1;"/>
<path d="M796.6 279.843C796.799 279.454 797.013 279.076 797.252 278.71C797.361 278.546 797.474 278.385 797.587 278.224C798.025 277.596 797.238 278.614 797.738 278.031C798.255 277.427 798.797 276.849 799.377 276.304C800.636 275.12 802.01 274.07 803.346 272.979C806.216 270.632 808.837 267.889 809.936 264.259C810.352 262.884 809.439 261.201 808.016 260.877C806.532 260.538 805.078 261.323 804.632 262.797C804.564 263.026 804.489 263.25 804.408 263.475C804.317 263.73 804.295 263.698 804.412 263.472C804.213 263.856 804.027 264.242 803.799 264.613C803.697 264.78 803.59 264.946 803.478 265.107C803.442 265.161 803.066 265.686 803.274 265.405C803.483 265.123 803.085 265.635 803.043 265.685C802.889 265.868 802.73 266.049 802.567 266.226C801.453 267.445 800.183 268.507 798.898 269.542C796.208 271.707 793.462 273.934 791.85 277.066C791.193 278.345 791.476 280.11 792.838 280.83C794.096 281.494 795.897 281.208 796.6 279.843Z" fill="#FFE4C0" style="fill:#FFE4C0;fill:color(display-p3 1.0000 0.8941 0.7514);fill-opacity:1;"/>
<path d="M599.088 524.629C600.87 520.26 603.698 516.502 607.098 513.271C610.449 510.087 614.161 507.016 616.043 502.673C616.633 501.312 616.445 499.724 615.056 498.911C613.894 498.231 611.888 498.527 611.294 499.897C609.449 504.153 605.69 506.932 602.447 510.116C598.653 513.845 595.788 518.252 593.785 523.167C593.223 524.543 594.394 526.19 595.706 526.55C597.28 526.983 598.525 526.011 599.088 524.629Z" fill="#FFE4C0" style="fill:#FFE4C0;fill:color(display-p3 1.0000 0.8941 0.7514);fill-opacity:1;"/>
<path d="M616.102 501.658C618.349 499.659 619.852 497.009 621.512 494.54C621.71 494.247 621.911 493.955 622.118 493.666C622.2 493.55 622.284 493.437 622.367 493.323C622.787 492.742 622.002 493.76 622.454 493.206C622.907 492.651 623.381 492.119 623.896 491.619C624.472 491.057 625.085 490.533 625.713 490.032C625.877 489.901 626.134 489.703 625.824 489.941C625.984 489.819 626.145 489.697 626.307 489.576C626.662 489.31 627.02 489.048 627.377 488.785C628.533 487.936 629.227 486.361 628.363 485.023C627.625 483.878 625.842 483.125 624.601 484.036C623.149 485.104 621.679 486.17 620.357 487.398C619.123 488.539 618.082 489.862 617.124 491.237C616.311 492.403 615.574 493.618 614.773 494.791C614.575 495.083 614.373 495.372 614.163 495.656C614.098 495.747 613.72 496.337 614.084 495.772C613.99 495.918 613.861 496.05 613.751 496.182C613.277 496.748 612.765 497.277 612.212 497.768C611.134 498.728 611.162 500.693 612.212 501.658C613.363 502.714 614.952 502.68 616.102 501.658Z" fill="#FFE4C0" style="fill:#FFE4C0;fill:color(display-p3 1.0000 0.8941 0.7514);fill-opacity:1;"/>
<path d="M604.466 516.292C606.084 514.572 607.681 512.841 609.127 510.973C610.564 509.114 611.642 507.127 612.81 505.102C613.732 503.5 615.039 502.343 616.334 501.389C618.212 500.006 619.963 498.657 621.319 496.736C622.177 495.521 621.538 493.676 620.334 492.972C618.957 492.169 617.43 492.742 616.57 493.959C616.056 494.69 616.721 493.811 616.39 494.194C616.233 494.373 616.073 494.546 615.906 494.715C615.569 495.053 615.206 495.36 614.844 495.669C614.634 495.848 614.472 495.967 614.026 496.296C613.637 496.583 613.245 496.868 612.858 497.16C611.006 498.556 609.426 500.034 608.224 502.048C607.122 503.892 606.204 505.798 604.897 507.519C603.662 509.145 602.049 510.838 600.576 512.403C599.56 513.485 599.504 515.219 600.576 516.292C601.604 517.32 603.445 517.378 604.466 516.292Z" fill="#FFE4C0" style="fill:#FFE4C0;fill:color(display-p3 1.0000 0.8941 0.7514);fill-opacity:1;"/>
<path d="M622.629 494.957C624.198 493.951 625.775 492.916 627.147 491.645C628.423 490.462 629.473 489.01 630.323 487.495C631.866 484.745 632.86 481.704 634.762 479.16C635.628 478.002 634.988 476.037 633.775 475.398C632.333 474.635 630.936 475.148 630.013 476.383C628.206 478.8 627.215 481.666 625.799 484.306C625.468 484.925 625.112 485.532 624.714 486.113C624.604 486.274 624.488 486.43 624.375 486.588C624.192 486.844 624.639 486.294 624.296 486.675C624.047 486.951 623.803 487.229 623.536 487.49C623.23 487.79 622.91 488.074 622.579 488.347C622.508 488.404 622.046 488.744 622.425 488.473C622.284 488.573 622.146 488.677 622.007 488.777C621.304 489.278 620.578 489.743 619.852 490.208C618.644 490.984 618.038 492.687 618.867 493.97C619.645 495.18 621.333 495.787 622.629 494.957Z" fill="#FFE4C0" style="fill:#FFE4C0;fill:color(display-p3 1.0000 0.8941 0.7514);fill-opacity:1;"/>
</svg>
