<svg width="502" height="340" viewBox="0 0 502 340" fill="none" xmlns="http://www.w3.org/2000/svg">
<path d="M472.447 42.4792L471.577 51.153L470.574 59.777L469.179 68.3761L467.105 76.8432L463.035 84.637L458.729 92.1889L450.299 91.6184L440.915 88.996L431.52 86.5012L421.74 86.1829L412.402 82.6585L402.678 81.8738L392.939 81.6113L383.212 82.1613L373.529 83.7424L363.912 84.2469L354.275 83.6441L344.661 84.222L335.044 84.5725L325.349 82.6306L315.806 85.1445L306.181 85.3146L296.922 86.1536L287.518 85.1548L278.215 85.8309L269.161 88.5472L259.656 87.8138L250.687 90.7413L241.715 93.3373L232.379 94.0809L223.353 96.3557L214.57 99.5398L204.958 99.6718L196.746 104.726L187.969 107.744L178.663 109.254L170.108 113.062L161.044 115.493L152.849 120.19L144.116 123.483L135.243 126.46L126.305 129.334L118.372 134.479L109.223 136.956L101.534 142.526L93.1421 146.605L84.8026 150.794L76.249 154.596L68.6473 160.137L60.5777 164.809L51.8745 168.425L42.2898 173.048L34.232 179.984L26.3457 186.994L19.1004 194.621L7.59585 197.936L2.11196 195.518L0 188.756L5.47212 180.182L7.75277 170.304L12.5752 161.537L18.4873 153.471L24.9597 145.895L30.1781 137.32L36.4643 129.524L43.5307 122.437L51.3172 116.144L58.6652 109.372L66.3945 103.99L74.008 98.4956L81.0348 92.1698L89.1528 87.387L96.4333 81.34L105.77 78.5592L112.803 72.0472L121.194 67.7938L129.913 64.1697L137.815 59.0598L146.733 55.8801L154.506 50.4696L163.306 45.763L172.745 42.4322L182.106 39.0105L191.343 35.357L200.559 31.6449L209.562 27.1892L218.954 23.7366L229.019 22.8185L238.584 19.979L248.931 16.9005L259.76 16.5632L270.186 13.932L280.55 11.1292L288.729 11.0206L296.444 8.89983L304.065 6.58542L314.082 4.46024L324.311 5.35197L334.66 4.25783L345.017 5.97969L355.485 5.81691L365.835 4.1933L376.332 4.13022L386.603 2.11504L395.793 0.000106812L405.215 0.154099L414.587 0.410767L423.962 0.888901L433.08 2.5829L442.19 4.35611L451.059 5.7597L458.503 10.6349L465.784 15.9325L469.8 24.115L471.877 33.003L472.447 42.4792Z" fill="#EEB363" style="fill:#EEB363;fill-opacity:1;"/>
<path d="M276.177 333.109L276.679 334.357L278.346 339.367L273.371 337.153L265.551 333.8L258.065 329.734L252.485 331.893L244.125 333.798L240.11 331.785L243.055 328.501L245.173 328.152L238.249 326.823L230.669 327.668L221.504 331.914L215.026 327.602L212.052 320.119L209.265 323.218L204.057 326.353L204.51 320.61L195.449 324.527L194.814 326.029L188.916 327.807L188.547 322.31L183.321 323.222L171.378 319.88L171.812 316.992L173.823 316.939L182.588 315.749L187.642 305.904L188.155 302.206L177.142 300.097L165.988 298.702L158.159 296.615L155.977 294.03L158.951 291.959L172.628 293.912L182.448 294.839L192.306 294.002L202.144 294.21L211.956 293.468L221.852 293.952L231.664 293.003L241.284 290.579L251.172 290.187L260.848 288.327L270.509 286.393L279.982 283.672L290.357 281.011L300.797 278.574L310.94 275.077L321.207 272.033L329.784 269.503L337.645 265.255L345.219 260.573L352.539 255.528L359.774 250.365L369.337 245.633L378.697 240.617L389.226 239.222L396.442 239.426L403.663 240.113L407.379 244.717L402.538 247.425L394.279 247.934L386.058 247.079L376.958 249.634L374.671 251.707L376.755 254.55L382.326 254.764L389.992 255.314L397.661 255.041L401.015 255.851L399.097 258.973L394.841 261.861L386.229 265.647L379.703 272.474L373.476 282.628L367.977 292.817L372.688 293.371L377.641 297.884L371.94 302.089L359.107 301.947L347.035 307.269L347.111 308.394L356.611 310.009L360.785 311.014L364.05 312.229L362.183 315.892L357.187 317.408L343.151 314.865L334.003 314.284L330.972 318.805L325.529 316.445L319.894 319.588L314.665 323.056L310.277 324.527L305.926 327.034L304.845 327.754L309.934 331.223L311.298 334.206L308.312 335.505L304.328 334.634L296.573 331.641L288.158 331.582L288.032 336.51L281.173 335.126L277.725 331.858L276.177 333.109Z" fill="#EEB363" style="fill:#EEB363;fill-opacity:1;"/>
<path d="M267.233 160.93L276.904 161.181L286.46 162.871L296.112 162.85L305.7 163.88L315.052 166.261L324.382 168.571L333.619 171.217L342.954 173.69L351.876 177.357L360.239 182.197L368.718 186.711L376.592 191.817L378.612 196.912L373.134 197.356L363.388 192.191L353.513 187.296L344.691 184.186L336.13 180.366L327.169 177.657L317.874 176.307L308.766 174.343L299.644 172.298L290.351 171.329L281.049 170.283L271.693 170.188L262.379 171.288L253.093 172.046L242.782 172.737L232.42 172.813L222.27 174.781L212.167 176.826L203.304 178.958L195.504 183.725L187.573 188.011L179.44 192.158L172.924 198.546L165.012 204.921L157.918 212.219L149.849 218.447L142.99 225.994L135.371 232.726L128.667 238.385L122.758 237.814L123.619 232.521L123.613 230.79L130.775 223.934L137.448 216.612L144.687 209.852L151.895 203.063L159.114 196.258L166.984 190.218L174.98 184.335L183.811 179.765L191.509 175.113L199.66 171.263L208.288 168.661L217.013 166.534L225.903 165.345L234.725 163.5L245.538 162.331L256.421 162.279L267.233 160.93Z" fill="#EEB363" style="fill:#EEB363;fill-opacity:1;"/>
<path d="M22.3624 136.064L18.3555 131.616L23.5988 124.039L29.8952 117.304L37.4764 112.058L45.7455 107.981L49.1569 109.464L48.098 113.51L38.2405 122.501L32.7332 127.542L27.3329 132.69L22.3624 136.064Z" fill="#EEB363" style="fill:#EEB363;fill-opacity:1;"/>
<path d="M472.93 76.4835L474.278 66.2417L475.266 55.9648L476.348 45.2552L477.338 34.5353L479.776 31.6416L483.104 33.5307L483.476 37.3719L482.576 46.4461L481.904 55.5439L480.85 64.6035L480.031 73.6865L479.115 76.592L475.841 79.1719L472.93 76.4835Z" fill="#EEB363" style="fill:#EEB363;fill-opacity:1;"/>
<path d="M501.971 27.4343L501.353 30.1594L498.455 39.1222L495.525 48.0747L492.445 56.9774L491.056 59.7684L487.48 61.04L485.695 57.8324L488.045 47.3604L491.272 37.1319L495.911 27.4856L499.668 25.601L501.971 27.4343Z" fill="#EEB363" style="fill:#EEB363;fill-opacity:1;"/>
</svg>
