<svg width="792" height="836" viewBox="0 0 792 836" fill="none" xmlns="http://www.w3.org/2000/svg">
<path d="M315.873 439.33C313.5 439.761 310.682 440.123 308.409 440.537C306.048 440.966 303.708 441.263 301.423 441.678C299.077 442.106 296.761 442.511 294.464 442.927C292.132 443.35 289.851 443.942 287.537 444.359C285.033 444.809 282.72 446.324 280.217 446.771C277.712 447.219 275.044 446.742 272.539 447.188C270.035 447.634 267.514 447.986 265.009 448.433C262.505 448.881 260.056 449.639 257.552 450.089C255.049 450.538 252.613 451.361 250.11 451.815C247.739 452.247 245.257 452.066 242.887 452.499C240.517 452.93 238.304 454.228 235.934 454.662C233.563 455.095 231.207 455.599 228.835 456.032C226.465 456.466 224.124 457.062 221.754 457.496C219.384 457.928 216.785 457.113 214.415 457.547C212.045 457.981 209.861 459.43 207.491 459.864C205.12 460.299 202.592 459.872 200.222 460.304C197.852 460.737 195.675 462.232 193.305 462.664C190.933 463.097 188.424 462.767 186.054 463.198C183.684 463.631 181.303 464.006 178.932 464.437C176.512 464.876 174.024 464.948 171.604 465.386C169.183 465.825 166.842 466.702 164.42 467.139C162 467.578 159.689 468.623 157.269 469.062C154.848 469.499 152.363 469.584 149.941 470.021C147.521 470.457 145.179 471.331 142.758 471.768C140.336 472.203 137.814 472.071 135.392 472.507C132.971 472.943 130.623 473.787 128.201 474.222C125.78 474.657 123.172 474.051 120.75 474.484C118.329 474.918 116.006 475.902 113.584 476.335C111.251 476.752 108.994 477.61 106.659 478.023C104.324 478.437 101.822 477.909 99.4867 478.319C97.1503 478.732 94.9444 479.874 92.608 480.285C90.2731 480.694 87.8824 480.794 85.546 481.203C83.2111 481.612 80.8659 481.974 78.531 482.385C76.1945 482.796 73.7834 482.775 71.4484 483.189C69.112 483.601 66.8754 484.567 64.5404 484.984C62.1366 485.412 59.7943 486.193 57.3904 486.624C54.988 487.053 52.6443 487.823 50.2404 488.255C47.838 488.687 45.2318 487.998 42.8294 488.429C40.4255 488.862 38.1742 490.138 35.7703 490.57C33.3664 491.003 30.8848 490.997 28.481 491.43C26.0771 491.863 23.817 493.087 21.4131 493.52C19.0092 493.951 16.5144 493.87 14.1106 494.302C11.7067 494.733 9.3703 495.547 6.96644 495.977C4.56257 496.406 1.98563 495.867 -0.418236 496.295C-3.16384 496.783 -5.7261 498.329 -8.47463 498.797C-11.2246 499.265 -14.0934 499.032 -16.8449 499.485C-19.5964 499.937 -22.3214 500.553 -25.0744 500.996C-26.5264 501.23 -28.128 501.518 -29.5932 501.362C-30.171 501.301 -30.919 499.916 -31.6406 499.34C-29.5022 497.452 -26.9092 496.983 -24.6021 496.55C-22.1777 496.095 -19.7929 495.433 -17.3685 494.978C-14.9441 494.523 -12.376 494.831 -9.95157 494.376C-7.52717 493.922 -5.08518 493.56 -2.66078 493.105C-0.236378 492.65 2.0883 491.666 4.5127 491.213C6.9371 490.758 9.48616 490.969 11.912 490.516C14.3364 490.062 16.5643 488.555 18.9887 488.102C21.4351 487.645 23.8639 487.09 26.3103 486.633C28.7582 486.175 31.228 485.842 33.6759 485.384C36.1223 484.927 38.5702 484.477 41.0166 484.019C43.4644 483.56 45.9284 483.199 48.3763 482.741C50.8227 482.282 53.3175 482.081 55.7639 481.622C58.2118 481.165 60.7858 481.389 63.2322 480.932C65.68 480.473 68.1587 480.187 70.6051 479.729C73.053 479.271 75.4554 478.578 77.9017 478.12C80.3496 477.662 82.5995 476.15 85.0459 475.694C87.4938 475.237 90.1059 475.669 92.5538 475.212C95.0002 474.755 97.2852 473.428 99.7331 472.973C102.18 472.517 104.753 472.743 107.201 472.289C109.649 471.832 112.041 471.083 114.489 470.628C116.937 470.174 119.416 469.888 121.864 469.434C124.391 468.967 127.032 469.115 129.561 468.648C132.088 468.182 134.651 467.913 137.18 467.449C139.709 466.985 141.994 465.193 144.522 464.729C147.051 464.267 149.673 464.313 152.202 463.851C154.73 463.389 157.228 462.76 159.758 462.298C162.286 461.837 164.756 461.054 167.285 460.592C169.815 460.131 172.575 460.944 175.104 460.483C177.634 460.023 180.049 458.943 182.578 458.483C185.108 458.022 187.705 457.939 190.234 457.477C192.762 457.015 195.305 456.626 197.834 456.164C200.363 455.701 202.849 455.007 205.377 454.543C207.806 454.096 210.279 453.888 212.707 453.439C215.135 452.99 217.543 452.425 219.97 451.975C222.398 451.523 224.758 450.705 227.186 450.253C229.614 449.803 232.11 449.719 234.537 449.268C236.965 448.816 239.195 447.304 241.623 446.852C244.052 446.4 246.483 445.975 248.912 445.525C251.339 445.075 253.99 445.824 256.419 445.377C258.847 444.929 261.237 444.277 263.665 443.832C266.104 443.385 268.488 442.63 270.928 442.187C273.367 441.744 275.809 441.314 278.25 440.874C280.69 440.434 283.203 440.389 285.643 439.95C288.084 439.513 290.567 439.31 293.007 438.872C295.448 438.435 297.641 436.61 300.083 436.173C302.523 435.736 305.04 435.722 307.481 435.283C309.921 434.846 312.293 434.022 314.733 433.582C315.321 433.476 316.232 433.177 316.735 433.315C319.639 434.116 321.701 433.589 323.964 432.486C326.286 431.354 328.85 430.591 331.183 429.512C333.219 428.569 334.717 426.411 336.777 425.536C338.883 424.641 341.198 424.235 343.31 423.356C345.422 422.478 347.361 421.18 349.474 420.303C351.588 419.425 353.757 418.692 355.864 417.802C357.972 416.912 360.166 416.233 362.262 415.314C364.667 414.258 367.344 413.805 369.739 412.726C372.134 411.646 374.353 410.172 376.744 409.081C379.133 407.988 381.406 406.64 383.796 405.548C386.185 404.455 388.602 403.42 390.996 402.339C393.212 401.337 395.22 399.879 397.431 398.869C399.644 397.86 401.831 396.792 404.044 395.784C406.258 394.777 408.837 394.577 411.057 393.583C413.276 392.588 415.685 392.034 417.913 391.062C420.143 390.089 422.221 388.782 424.465 387.842C426.562 386.965 428.08 385.427 429.669 384.111C431.264 382.79 432.471 381.145 433.838 379.368C435.302 377.464 437.014 375.753 438.486 373.856C439.957 371.96 441.535 370.145 443.014 368.253C444.492 366.361 446.051 364.534 447.534 362.646C449.017 360.759 450.772 359.085 452.26 357.201C453.745 355.316 454.461 352.821 455.95 350.938C457.438 349.053 459.858 347.908 461.347 346.025C462.837 344.141 463.94 341.953 465.427 340.069C466.916 338.184 468.412 336.307 469.898 334.42C471.41 332.501 473.006 330.647 474.518 328.725C476.03 326.804 476.817 324.315 478.33 322.394C479.842 320.472 482.191 319.211 483.703 317.29C485.214 315.37 486.144 312.99 487.655 311.068C489.165 309.147 490.544 307.121 492.055 305.2C493.565 303.279 495.688 301.837 497.198 299.914C498.709 297.993 499.937 295.85 501.447 293.927C502.97 291.988 504.866 290.341 506.388 288.402C507.911 286.462 508.866 284.077 510.388 282.138C511.91 280.198 513.513 278.32 515.034 276.381C516.557 274.441 517.676 272.185 519.198 270.245C520.721 268.305 522.356 266.454 523.878 264.515C525.401 262.574 527.384 260.996 528.908 259.057C530.43 257.12 532.016 255.229 533.541 253.29C535.198 251.184 536.696 248.952 538.354 246.847C540.013 244.741 541.798 242.736 543.458 240.631C545.119 238.527 547.2 236.755 548.862 234.65C550.522 232.547 551.191 229.659 552.851 227.556C554.511 225.453 556.833 223.869 558.493 221.766C560.154 219.662 561.462 217.279 563.122 215.176C564.784 213.071 567.169 211.54 568.829 209.435C570.367 207.483 571.508 205.219 573.047 203.267C574.587 201.316 576.281 199.487 577.82 197.535C579.358 195.584 580.784 193.543 582.322 191.592C583.861 189.64 585.807 188.01 587.345 186.058C588.885 184.108 590.43 182.16 591.968 180.209C593.507 178.257 594.771 176.089 596.31 174.139C597.85 172.187 599.462 170.293 601 168.342C602.54 166.39 603.885 164.287 605.424 162.336C606.964 160.384 608.574 158.489 610.113 156.539C611.707 154.518 612.971 152.238 614.564 150.217C616.157 148.196 617.644 146.092 619.237 144.07C620.829 142.049 622.917 140.419 624.509 138.397C626.102 136.376 627.872 134.496 629.467 132.475C631.059 130.454 632.696 128.468 634.291 126.449C635.885 124.429 637.285 122.257 638.881 120.239C640.477 118.219 641.376 115.649 642.973 113.631C644.581 111.601 646.518 109.833 648.127 107.804C649.736 105.776 651.329 103.734 652.939 101.706C654.55 99.679 656.122 97.6212 657.734 95.5942C659.344 93.5673 660.603 91.2588 662.214 89.2319C663.825 87.205 665.668 85.3628 667.28 83.3358C668.891 81.3089 670.833 79.5446 672.443 77.5176C674.055 75.4892 675.275 73.1528 676.884 71.1244C678.494 69.096 680.071 67.0427 681.679 65.0128C683.304 62.9624 684.858 60.8577 686.482 58.8058C688.105 56.7555 690.122 55.0145 691.744 52.9626C693.366 50.9108 694.981 48.8516 696.602 46.7997C698.224 44.7463 699.586 42.4907 701.209 40.4374C702.829 38.384 704.993 36.7589 706.613 34.7056C708.235 32.6537 709.262 30.1311 710.884 28.0778C712.505 26.0244 714.079 23.9344 715.701 21.8826C717.313 19.8409 719.089 17.9299 720.699 15.8868C722.31 13.8438 724.008 11.8696 725.621 9.82947C727.235 7.78931 729.375 6.16718 730.995 4.13287C732.402 2.367 733.603 0.761047 735.925 0.139221C737.701 -0.335999 738.996 0.426636 738.356 2.1001C737.567 4.16663 736.52 6.18774 735.175 7.91986C733.628 9.91162 731.853 11.7244 730.297 13.7103C728.742 15.6946 727.089 17.6013 725.527 19.5813C723.965 21.5613 722.929 23.9564 721.362 25.9334C719.796 27.9105 717.641 29.4197 716.073 31.3953C714.505 33.3709 712.883 35.304 711.315 37.2796C709.69 39.3286 708.939 42.0726 707.313 44.1216C705.686 46.1705 703.567 47.8279 701.939 49.8768C700.312 51.9243 699.277 54.444 697.649 56.4915C696.021 58.5389 693.71 60.0437 692.082 62.0912C690.454 64.1387 688.785 66.1553 687.158 68.2028C685.53 70.2517 684.493 72.7686 682.867 74.8174C681.24 76.8664 678.864 78.3199 677.237 80.3703C675.586 82.4529 674.925 85.3217 673.272 87.4059C671.62 89.4885 669.084 90.8716 667.433 92.9557C665.781 95.0399 664.778 97.6388 663.128 99.7229C661.477 101.807 659.104 103.319 657.454 105.405C655.802 107.489 654.146 109.569 652.496 111.654C650.846 113.74 649.561 116.114 647.913 118.2C646.264 120.286 644.449 122.241 642.802 124.328C641.14 126.431 639.676 128.69 638.017 130.794C636.359 132.9 634.895 135.159 633.237 137.265C631.58 139.371 629.572 141.202 627.916 143.309C626.259 145.415 625.273 148.05 623.615 150.156C621.957 152.262 619.785 153.963 618.125 156.068C616.466 158.173 614.947 160.387 613.285 162.49C611.623 164.594 609.454 166.293 607.788 168.394C606.308 170.261 605.796 172.898 604.313 174.762C602.831 176.628 601.208 178.383 599.723 180.246C598.238 182.11 596.102 183.453 594.614 185.316C593.127 187.177 592.262 189.536 590.773 191.397C589.286 193.258 587.769 195.097 586.282 196.958C584.793 198.82 583.325 200.696 581.838 202.557C580.349 204.419 578.485 205.979 576.998 207.841C575.511 209.702 573.468 211.121 571.982 212.983C570.344 215.037 568.967 217.298 567.33 219.352C565.693 221.406 564.429 223.757 562.792 225.811C561.155 227.866 559.642 230.017 558.005 232.072C556.37 234.127 554.564 236.048 552.927 238.103C551.292 240.158 549.332 241.954 547.696 244.009C546.059 246.064 544.47 248.155 542.834 250.21C541.324 252.105 539.638 253.859 538.127 255.754C536.616 257.649 535.723 260.037 534.213 261.932C532.703 263.827 530.6 265.249 529.089 267.144C527.579 269.038 526.577 271.339 525.066 273.234C523.557 275.129 522.359 277.272 520.848 279.167C519.338 281.062 517.208 282.464 515.697 284.359C514.187 286.252 513.273 288.622 511.762 290.517C510.206 292.468 507.673 293.64 506.119 295.59C504.562 297.541 503.769 300.099 502.213 302.05C500.657 304 498.325 305.332 496.77 307.283C495.214 309.233 494.461 311.826 492.905 313.777C491.351 315.728 489.731 317.627 488.175 319.578C486.619 321.528 484.919 323.365 483.365 325.315C481.809 327.266 479.67 328.752 478.114 330.702C476.558 332.653 475.499 335 473.943 336.95C472.423 338.857 471.504 341.243 469.983 343.149C468.463 345.055 466.865 346.9 465.344 348.807C463.823 350.712 461.378 351.881 459.857 353.788C458.336 355.694 456.731 357.532 455.211 359.439C453.69 361.345 452.717 363.689 451.198 365.596C449.677 367.503 448.678 369.824 447.157 371.731C445.638 373.638 443.445 375.009 441.925 376.916C440.405 378.822 438.841 380.694 437.322 382.6C436.387 383.772 435.369 385.076 434.214 386.588C435.015 387.012 436.044 388.476 436.707 388.457C439.247 388.385 441.748 386.996 444.288 386.92C446.827 386.843 449.364 386.731 451.905 386.65C454.443 386.569 457.017 387.514 459.556 387.427C462.095 387.342 464.616 386.692 467.155 386.601C469.694 386.512 472.256 387.03 474.795 386.934C476.998 386.851 479.158 385.77 481.361 385.669C483.563 385.567 485.821 386.635 488.023 386.528C490.224 386.423 492.398 385.713 494.599 385.616C496.802 385.519 499.008 385.569 501.213 385.496C503.528 385.419 505.843 385.302 508.162 385.251C510.479 385.198 512.783 384.494 515.1 384.45C517.419 384.407 519.748 384.946 522.066 384.894C524.383 384.843 526.687 384.36 529.004 384.286C531.207 384.214 533.45 385.147 535.653 385.051C537.856 384.956 540.06 384.861 542.262 384.756C544.465 384.654 546.66 384.456 548.863 384.36C551.065 384.264 553.251 383.854 555.454 383.781C557.772 383.705 560.085 383.56 562.402 383.501C564.719 383.444 567.023 382.768 569.341 382.719C571.658 382.669 573.981 382.839 576.299 382.787C578.616 382.734 580.919 382.232 583.236 382.166C585.578 382.099 587.948 382.933 590.289 382.845C592.63 382.757 594.949 382.071 597.291 381.98C599.632 381.891 601.999 382.529 604.341 382.454C606.657 382.38 608.945 381.363 611.262 381.295C613.578 381.226 615.915 381.813 618.232 381.747C620.549 381.682 622.852 381.106 625.168 381.041C627.485 380.978 629.826 381.791 632.143 381.726C634.461 381.662 636.779 381.698 639.097 381.635C641.414 381.572 643.718 381.075 646.036 381.013C648.353 380.95 650.678 381.222 652.995 381.16C655.312 381.097 657.638 381.365 659.954 381.302C662.346 381.238 664.715 380.273 667.107 380.208C669.499 380.144 671.88 379.673 674.272 379.61C676.664 379.545 679.069 380.007 681.461 379.943C683.854 379.877 686.234 379.374 688.626 379.308C691.017 379.242 693.427 379.833 695.817 379.764C698.208 379.695 700.6 379.664 702.991 379.594C705.381 379.525 707.766 379.253 710.157 379.187C712.459 379.124 714.758 378.909 717.06 378.849C719.363 378.789 721.686 379.513 723.989 379.453C726.292 379.393 728.572 378.486 730.873 378.423C733.176 378.362 735.47 378.017 737.773 377.951C740.075 377.884 742.372 377.686 744.675 377.611C746.952 377.539 749.246 377.96 751.524 377.87C753.803 377.781 756.085 377.796 758.363 377.7C760.641 377.605 762.91 377.278 765.188 377.188C767.465 377.099 769.772 377.878 772.052 377.806C774.294 377.734 776.523 377.317 778.766 377.262C781.008 377.205 783.242 376.735 785.485 376.687C787.727 376.637 789.97 376.544 792.212 376.493C794.456 376.443 796.696 376.313 798.939 376.253C801.705 376.179 804.493 376.955 807.258 376.877C810.024 376.798 812.75 375.418 815.516 375.337C818.281 375.257 821.066 375.858 823.831 375.779C826.595 375.698 829.35 375.207 832.115 375.131C834.881 375.054 837.647 374.978 840.413 374.905C843.179 374.833 845.944 374.657 848.71 374.585C851.476 374.513 854.26 375.163 857.026 375.09C859.792 375.018 862.561 375.018 865.327 374.943C867.532 374.884 869.748 375.227 871.954 375.167C874.159 375.109 876.327 373.695 878.533 373.633C880.737 373.572 882.945 373.614 885.151 373.551C887.355 373.487 889.584 374.226 891.789 374.158C894.144 374.088 896.47 373.139 898.824 373.063C901.178 372.986 903.566 373.944 905.92 373.866C908.274 373.789 910.63 373.775 912.984 373.699C915.338 373.623 917.68 373.192 920.034 373.121C922.052 373.061 924.079 373.409 926.097 373.371C928.117 373.332 930.125 373.265 932.144 373.277C933.427 373.286 934.869 372.967 936.016 373.506C936.808 373.877 937.549 375.078 937.525 375.814C937.5 376.618 936.669 377.58 935.862 377.917C934.379 378.539 932.791 379.457 931.182 379.513C928.521 379.604 925.854 379.491 923.195 379.576C920.534 379.66 917.866 379.5 915.206 379.581C912.545 379.66 909.88 379.553 907.22 379.629C904.559 379.707 901.91 380.169 899.25 380.245C896.589 380.321 893.939 380.776 891.28 380.852C888.589 380.93 885.89 380.714 883.198 380.792C880.509 380.87 877.819 380.955 875.127 381.033C872.438 381.11 869.732 380.647 867.04 380.725C864.35 380.801 861.682 381.685 858.993 381.763C856.301 381.841 853.582 380.899 850.891 380.977C848.201 381.055 845.53 381.851 842.84 381.929C840.149 382.005 837.472 382.549 834.781 382.627C832.091 382.703 829.384 382.234 826.694 382.311C824.002 382.389 821.295 381.838 818.604 381.914C815.914 381.992 813.252 383.115 810.562 383.193C807.871 383.271 805.167 382.879 802.476 382.958C799.786 383.037 797.11 383.614 794.42 383.693C791.728 383.772 789.022 383.328 786.331 383.406C783.641 383.482 780.943 383.256 778.251 383.329C775.56 383.403 772.895 384.445 770.204 384.513C767.786 384.575 765.342 383.489 762.923 383.545C760.506 383.599 758.099 384.083 755.681 384.136C753.264 384.187 750.849 384.441 748.432 384.492C746.015 384.542 743.606 384.959 741.187 385.01C738.77 385.063 736.328 383.976 733.909 384.032C731.492 384.086 729.091 384.847 726.674 384.909C723.983 384.976 721.271 384.246 718.58 384.319C715.89 384.393 713.204 384.676 710.513 384.752C707.823 384.83 705.125 384.68 702.435 384.759C699.745 384.839 697.064 385.255 694.374 385.334C691.683 385.413 689.018 386.37 686.328 386.447C683.638 386.525 680.929 385.968 678.238 386.046C675.548 386.123 672.859 386.264 670.168 386.342C667.478 386.42 664.781 386.246 662.09 386.324C659.4 386.403 656.736 387.415 654.047 387.495C651.355 387.572 648.668 387.764 645.978 387.842C643.287 387.921 640.566 386.958 637.877 387.036C635.185 387.115 632.503 387.481 629.813 387.559C627.121 387.638 624.452 388.444 621.762 388.521C619.071 388.599 616.347 387.52 613.656 387.596C610.966 387.674 608.282 387.976 605.591 388.053C602.901 388.13 600.224 388.664 597.533 388.74C594.843 388.818 592.134 388.247 589.444 388.323C586.753 388.4 584.059 388.319 581.369 388.395C578.677 388.47 576.018 389.674 573.329 389.749C570.639 389.822 567.93 389.249 565.24 389.319C562.49 389.393 559.725 388.898 556.975 388.966C554.224 389.035 551.491 389.787 548.74 389.853C545.99 389.921 543.225 389.403 540.475 389.47C537.725 389.536 534.969 389.458 532.219 389.529C529.469 389.599 526.738 390.431 523.988 390.507C521.546 390.573 519.115 390.95 516.674 391.022C514.234 391.094 511.786 390.925 509.345 391C506.903 391.075 504.449 390.72 502.009 390.795C499.568 390.871 497.123 390.823 494.683 390.896C492.242 390.969 489.811 391.333 487.369 391.402C484.928 391.471 482.48 391.238 480.038 391.301C477.683 391.361 475.335 391.628 472.979 391.669C470.624 391.711 468.279 392.421 465.923 392.453C463.566 392.486 461.199 391.723 458.843 391.757C456.488 391.79 454.125 391.518 451.77 391.563C448.703 391.622 445.641 391.768 442.575 391.824C439.516 391.88 436.443 393.119 433.372 393.023C430.776 392.94 427.703 393.515 425.261 394.888C422.23 396.592 419.6 399.111 416.2 399.931C415.332 400.14 414.478 400.233 413.776 400.74C411.042 402.719 407.924 404.011 404.586 404.543C403.603 404.699 402.773 405.275 401.922 405.863C399.421 407.592 396.575 408.349 393.511 408.877C392.01 409.137 390.831 410.728 389.607 411.737C387.336 413.606 384.778 415.159 381.653 415.143C380.129 415.134 378.794 416.101 377.297 416.741C375.107 417.679 372.583 417.863 370.425 418.871C369.205 419.442 368.423 420.905 367.221 421.515C366.152 422.058 365.033 422.95 363.9 423.223C361.895 423.705 359.927 423.922 358.135 424.798C356.344 425.672 354.153 426.131 352.625 427.549C352.113 428.025 351.696 428.608 350.985 428.686C348.238 428.984 345.587 429.694 343.106 430.71C340.613 431.729 338.42 433.485 335.951 434.573C334.167 435.361 332.053 435.372 330.251 436.12C329.318 436.509 327.134 437.963 325.113 439.421C323.073 440.892 321.741 443.159 321.113 443.9C319.525 445.774 318.083 447.772 316.496 449.646C314.908 451.519 312.564 452.753 310.976 454.627C309.389 456.501 307.765 458.345 306.177 460.219C304.59 462.094 302.981 463.949 301.392 465.823C299.805 467.698 298.296 469.638 296.708 471.513C295.121 473.386 293.986 475.644 292.399 477.519C290.81 479.392 289.52 481.518 287.931 483.391C286.343 485.266 284.576 486.987 282.987 488.86C281.397 490.733 279.838 492.631 278.248 494.504C276.66 496.377 274.928 498.128 273.338 500.001C271.75 501.874 269.839 503.473 268.249 505.346C266.694 507.178 265.792 509.565 264.237 511.396C262.683 513.228 260.157 514.235 258.602 516.067C257.046 517.899 255.584 519.809 254.029 521.64C252.473 523.471 250.762 525.169 249.205 527.001C247.649 528.831 246.579 531.074 245.023 532.904C243.466 534.736 241.388 536.122 239.832 537.953C238.276 539.783 236.723 541.616 235.167 543.447C233.61 545.277 232.345 547.355 230.789 549.186C229.231 551.016 228.212 553.304 226.655 555.133C225.098 556.964 223.436 558.703 221.879 560.533C220.321 562.362 218.929 564.334 217.371 566.163C215.685 568.144 213.737 569.902 212.049 571.883C210.361 573.863 208.322 575.543 206.634 577.523C204.946 579.502 202.983 581.247 201.294 583.227C199.604 585.206 198.409 587.607 196.721 589.585C195.031 591.564 193.07 593.311 191.381 595.289C189.691 597.268 188.205 599.421 186.517 601.401C184.828 603.379 183.474 605.644 181.784 607.622C180.096 609.602 177.676 610.959 175.988 612.939C174.3 614.919 172.805 617.063 171.119 619.043C169.552 620.882 168.341 623.024 166.776 624.863C165.209 626.702 163.502 628.421 161.937 630.26C160.372 632.101 158.388 633.584 156.825 635.424C155.26 637.264 153.96 639.33 152.395 641.171C150.832 643.01 148.995 644.62 147.431 646.461C145.867 648.3 145.05 650.777 143.487 652.617C141.922 654.457 140.531 656.446 138.965 658.285C137.4 660.124 135.521 661.698 133.956 663.537C132.39 665.377 130.897 667.277 129.33 669.115C127.764 670.954 125.922 672.557 124.354 674.395C122.788 676.233 121.352 678.184 119.782 680.02C118.131 681.954 116.069 683.537 114.416 685.471C112.763 687.404 111.242 689.45 109.589 691.384C107.936 693.317 106.475 695.414 104.822 697.347C103.169 699.28 101.48 701.182 99.827 703.115C98.1726 705.048 96.788 707.21 95.1336 709.143C93.4807 711.076 91.5168 712.743 89.8624 714.676C88.2095 716.609 86.6255 718.6 84.9711 720.532C83.3167 722.465 82.2768 724.922 80.6224 726.855C78.968 728.786 76.4674 729.995 74.813 731.927C73.16 733.86 71.312 735.626 69.6576 737.557C68.0032 739.49 67.0514 742.023 65.3984 743.956C63.744 745.888 61.811 747.582 60.1566 749.515C58.5036 751.446 56.8448 753.375 55.1904 755.308C53.5375 757.24 51.5384 758.877 49.884 760.81C48.2311 762.743 47.5432 765.502 45.8903 767.435C44.2374 769.368 41.4962 770.371 39.8432 772.304C38.1903 774.237 37.3308 776.849 35.6779 778.782C34.0308 780.708 31.7018 782.051 30.0562 783.979C28.4106 785.906 26.6403 787.727 24.9947 789.656C23.3506 791.585 21.9528 793.723 20.3102 795.652C18.666 797.58 17.4707 799.893 15.828 801.822C14.1839 803.751 12.5662 805.703 10.9235 807.632C9.27937 809.56 7.36097 811.256 5.71537 813.184C4.07124 815.112 2.47404 817.081 0.828442 819.008C-0.815693 820.936 -1.85704 823.381 -3.50411 825.306C-5.15117 827.234 -7.86451 828.247 -9.51304 830.171C-10.965 831.87 -11.9594 834.046 -13.6813 835.479C-14.0568 835.793 -15.1612 835.167 -15.5264 834.8C-15.8901 834.436 -16.2612 833.615 -15.9766 833.131C-14.991 831.458 -13.8866 829.827 -12.6356 828.342C-11.0545 826.465 -9.95744 824.18 -8.37491 822.304C-6.79384 820.427 -5.13503 818.615 -3.55249 816.74C-1.96996 814.862 -0.440243 812.942 1.14229 811.066C2.72482 809.191 4.22377 807.243 5.8063 805.367C7.38884 803.491 9.02271 801.659 10.6052 799.783C12.1892 797.908 14.4435 796.599 16.026 794.723C17.61 792.848 18.5751 790.451 20.1576 788.575C21.7416 786.699 23.2508 784.762 24.8334 782.887C26.4174 781.012 28.1744 779.282 29.757 777.408C31.341 775.532 33.1919 773.884 34.7759 772.008C36.3584 770.132 38.1126 768.401 39.6951 766.525C41.2776 764.649 42.1914 762.209 43.7739 760.333C45.3564 758.457 47.1604 756.768 48.743 754.892C50.3255 753.016 52.0738 751.281 53.6563 749.403C55.2476 747.516 57.3582 746.067 58.9495 744.179C60.5394 742.292 61.4854 739.86 63.0752 737.971C64.6651 736.083 66.5058 734.405 68.0956 732.516C69.684 730.627 71.5408 728.962 73.1292 727.073C74.7191 725.184 76.4615 723.423 78.0499 721.534C79.6398 719.645 81.3939 717.895 82.9823 716.006C84.5722 714.117 85.326 711.524 86.9144 709.635C88.5043 707.747 90.8539 706.498 92.4438 704.608C94.0351 702.721 94.9151 700.235 96.5064 698.347C98.0978 696.46 100.084 694.906 101.676 693.019C103.268 691.131 104.894 689.274 106.487 687.388C108.112 685.464 109.445 683.293 111.073 681.371C112.7 679.448 114.564 677.726 116.193 675.805C117.821 673.883 119.433 671.949 121.063 670.027C122.692 668.108 124.731 666.532 126.36 664.613C127.99 662.693 129.207 660.421 130.837 658.501C132.468 656.581 133.461 654.12 135.09 652.2C136.719 650.28 138.56 648.538 140.19 646.618C141.819 644.697 143.757 643.038 145.385 641.117C147.014 639.194 148.544 637.19 150.17 635.267C151.791 633.352 153.324 631.363 154.943 629.448C156.562 627.531 158.766 626.11 160.384 624.193C162.002 622.276 163.618 620.356 165.234 618.439C166.852 616.52 167.539 613.817 169.155 611.901C170.773 609.982 173.344 608.869 174.961 606.952C176.578 605.034 178.16 603.087 179.778 601.17C181.396 599.252 183 597.325 184.618 595.408C186.237 593.491 187.292 591.099 188.911 589.183C190.53 587.266 192.79 585.892 194.409 583.977C196.029 582.061 196.914 579.524 198.535 577.61C200.197 575.647 201.96 573.769 203.624 571.808C205.291 569.847 207.52 568.365 209.186 566.407C210.854 564.448 212.001 562.046 213.668 560.088C215.336 558.13 216.728 555.935 218.395 553.977C220.064 552.019 221.639 549.982 223.307 548.024C224.976 546.066 227.066 544.468 228.734 542.51C230.401 540.55 232.321 538.808 233.987 536.847C235.652 534.887 236.994 532.652 238.657 530.69C240.259 528.801 241.488 526.596 243.088 524.706C244.688 522.817 247.086 521.602 248.686 519.712C250.285 517.821 251.149 515.309 252.747 513.417C254.346 511.526 256.573 510.165 258.171 508.275C259.77 506.383 260.709 503.933 262.306 502.043C263.904 500.151 266.244 498.887 267.842 496.995C269.44 495.103 271.31 493.441 272.908 491.549C274.505 489.657 275.855 487.555 277.453 485.663C279.051 483.771 280.665 481.894 282.264 480.002C283.863 478.111 285.552 476.297 287.151 474.405C288.933 472.297 290.579 470.074 292.362 467.966C294.146 465.859 295.759 463.609 297.544 461.501C299.327 459.394 300.926 457.13 302.709 455.023C304.493 452.915 306.573 451.06 308.356 448.952C310.14 446.845 312.233 445 314.015 442.891C314.488 442.33 314.812 440.805 315.873 439.33Z" fill="#FFE4C0" style="fill:#FFE4C0;fill:color(display-p3 1.0000 0.8941 0.7514);fill-opacity:1;"/>
</svg>
